Lexend-LooseThin.ufo
<glyph name="exclam" format="2">
  <advance width="557"/>
  <unicode hex="0021"/>
  <outline>
    <contour>
      <point x="280" y="241" type="curve"/>
      <point x="296" y="241" type="line"/>
      <point x="299" y="304"/>
      <point x="300" y="369"/>
      <point x="300" y="436" type="curve" smooth="yes"/>
      <point x="299" y="700" type="line"/>
      <point x="277" y="700" type="line"/>
      <point x="277" y="436" type="line" smooth="yes"/>
      <point x="276" y="369"/>
      <point x="277" y="304"/>
    </contour>
    <contour>
      <point x="285" y="-8" type="curve" smooth="yes"/>
      <point x="305" y="-8"/>
      <point x="316" y="8"/>
      <point x="316" y="28" type="curve" smooth="yes"/>
      <point x="316" y="51"/>
      <point x="306" y="64"/>
      <point x="285" y="64" type="curve" smooth="yes"/>
      <point x="266" y="64"/>
      <point x="254" y="49"/>
      <point x="254" y="28" type="curve" smooth="yes"/>
      <point x="254" y="5"/>
      <point x="265" y="-8"/>
    </contour>
  </outline>
</glyph>
<glyph name="quotedbl" format="2">
  <advance width="484"/>
  <unicode hex="0022"/>
  <outline>
    <contour>
      <point x="246" y="442" type="line"/>
      <point x="263" y="442" type="line"/>
      <point x="321" y="700" type="line"/>
      <point x="294" y="700" type="line"/>
    </contour>
    <contour>
      <point x="153" y="442" type="line"/>
      <point x="170" y="442" type="line"/>
      <point x="228" y="700" type="line"/>
      <point x="201" y="700" type="line"/>
    </contour>
  </outline>
</glyph>
<glyph name="numbersign" format="2">
  <advance width="795"/>
  <unicode hex="0023"/>
  <outline>
    <contour>
      <point x="470" y="0" type="line"/>
      <point x="492" y="0" type="line"/>
      <point x="612" y="700" type="line"/>
      <point x="590" y="700" type="line"/>
    </contour>
    <contour>
      <point x="100" y="216" type="line"/>
      <point x="668" y="216" type="line"/>
      <point x="668" y="238" type="line"/>
      <point x="100" y="238" type="line"/>
    </contour>
    <contour>
      <point x="191" y="0" type="line"/>
      <point x="213" y="0" type="line"/>
      <point x="333" y="700" type="line"/>
      <point x="311" y="700" type="line"/>
    </contour>
    <contour>
      <point x="138" y="475" type="line"/>
      <point x="705" y="475" type="line"/>
      <point x="705" y="497" type="line"/>
      <point x="138" y="497" type="line"/>
    </contour>
  </outline>
</glyph>
<glyph name="percent" format="2">
  <advance width="931"/>
  <unicode hex="0025"/>
  <outline>
    <contour>
      <point x="222" y="0" type="line"/>
      <point x="249" y="0" type="line"/>
      <point x="714" y="700" type="line"/>
      <point x="687" y="700" type="line"/>
    </contour>
    <contour>
      <point x="243" y="329" type="curve" smooth="yes"/>
      <point x="331" y="329"/>
      <point x="397" y="411"/>
      <point x="397" y="518" type="curve" smooth="yes"/>
      <point x="397" y="629"/>
      <point x="332" y="709"/>
      <point x="243" y="709" type="curve" smooth="yes"/>
      <point x="152" y="709"/>
      <point x="90" y="629"/>
      <point x="90" y="518" type="curve" smooth="yes"/>
      <point x="90" y="409"/>
      <point x="152" y="329"/>
    </contour>
    <contour>
      <point x="243" y="350" type="curve" smooth="yes"/>
      <point x="167" y="350"/>
      <point x="112" y="418"/>
      <point x="112" y="518" type="curve" smooth="yes"/>
      <point x="112" y="618"/>
      <point x="167" y="688"/>
      <point x="243" y="688" type="curve" smooth="yes"/>
      <point x="320" y="688"/>
      <point x="375" y="619"/>
      <point x="375" y="518" type="curve" smooth="yes"/>
      <point x="375" y="418"/>
      <point x="318" y="350"/>
    </contour>
    <contour>
      <point x="687" y="-9" type="curve" smooth="yes"/>
      <point x="775" y="-9"/>
      <point x="841" y="73"/>
      <point x="841" y="180" type="curve" smooth="yes"/>
      <point x="841" y="291"/>
      <point x="776" y="371"/>
      <point x="687" y="371" type="curve" smooth="yes"/>
      <point x="596" y="371"/>
      <point x="534" y="291"/>
      <point x="534" y="180" type="curve" smooth="yes"/>
      <point x="534" y="71"/>
      <point x="596" y="-9"/>
    </contour>
    <contour>
      <point x="687" y="12" type="curve" smooth="yes"/>
      <point x="611" y="12"/>
      <point x="556" y="80"/>
      <point x="556" y="180" type="curve" smooth="yes"/>
      <point x="556" y="280"/>
      <point x="611" y="350"/>
      <point x="687" y="350" type="curve" smooth="yes"/>
      <point x="764" y="350"/>
      <point x="819" y="281"/>
      <point x="819" y="180" type="curve" smooth="yes"/>
      <point x="819" y="80"/>
      <point x="762" y="12"/>
    </contour>
  </outline>
</glyph>
<glyph name="ampersand" format="2">
  <advance width="838"/>
  <unicode hex="0026"/>
  <outline>
    <contour>
      <point x="625" y="0" type="line"/>
      <point x="654" y="0" type="line"/>
      <point x="590" y="70" type="line"/>
      <point x="583" y="78" type="line"/>
      <point x="340" y="343" type="line" smooth="yes"/>
      <point x="255" y="436"/>
      <point x="236" y="461"/>
      <point x="236" y="528" type="curve" smooth="yes"/>
      <point x="236" y="616"/>
      <point x="303" y="681"/>
      <point x="408" y="681" type="curve" smooth="yes"/>
      <point x="488" y="681"/>
      <point x="537" y="647"/>
      <point x="573" y="567" type="curve"/>
      <point x="592" y="578" type="line"/>
      <point x="559" y="659"/>
      <point x="499" y="703"/>
      <point x="408" y="703" type="curve" smooth="yes"/>
      <point x="292" y="703"/>
      <point x="213" y="630"/>
      <point x="213" y="526" type="curve" smooth="yes"/>
      <point x="213" y="451"/>
      <point x="235" y="421"/>
      <point x="338" y="309" type="curve" smooth="yes"/>
      <point x="563" y="66" type="line"/>
      <point x="576" y="53" type="line"/>
    </contour>
    <contour>
      <point x="400" y="-10" type="curve" smooth="yes"/>
      <point x="587" y="-10"/>
      <point x="697" y="128"/>
      <point x="721" y="329" type="curve"/>
      <point x="699" y="329" type="line"/>
      <point x="676" y="136"/>
      <point x="567" y="12"/>
      <point x="404" y="12" type="curve" smooth="yes"/>
      <point x="260" y="12"/>
      <point x="158" y="98"/>
      <point x="158" y="221" type="curve" smooth="yes"/>
      <point x="158" y="298"/>
      <point x="205" y="371"/>
      <point x="280" y="404" type="curve"/>
      <point x="268" y="422" type="line"/>
      <point x="180" y="379"/>
      <point x="135" y="304"/>
      <point x="135" y="221" type="curve" smooth="yes"/>
      <point x="135" y="77"/>
      <point x="243" y="-10"/>
    </contour>
  </outline>
</glyph>
<glyph name="quotesingle" format="2">
  <advance width="360"/>
  <unicode hex="0027"/>
  <outline>
    <contour>
      <point x="129" y="442" type="line"/>
      <point x="147" y="442" type="line"/>
      <point x="194" y="700" type="line"/>
      <point x="167" y="700" type="line"/>
    </contour>
  </outline>
</glyph>
<glyph name="parenleft" format="2">
  <advance width="530"/>
  <unicode hex="0028"/>
  <outline>
    <contour>
      <point x="400" y="-186" type="curve"/>
      <point x="415" y="-169" type="line"/>
      <point x="247" y="-58"/>
      <point x="173" y="85"/>
      <point x="173" y="258" type="curve" smooth="yes"/>
      <point x="173" y="434"/>
      <point x="254" y="580"/>
      <point x="415" y="685" type="curve"/>
      <point x="401" y="702" type="line"/>
      <point x="238" y="601"/>
      <point x="150" y="443"/>
      <point x="150" y="258" type="curve" smooth="yes"/>
      <point x="150" y="71"/>
      <point x="237" y="-85"/>
    </contour>
  </outline>
</glyph>
<glyph name="parenright" format="2">
  <advance width="530"/>
  <unicode hex="0029"/>
  <outline>
    <contour>
      <point x="129" y="-186" type="line"/>
      <point x="292" y="-85"/>
      <point x="380" y="73"/>
      <point x="380" y="258" type="curve" smooth="yes"/>
      <point x="380" y="445"/>
      <point x="293" y="601"/>
      <point x="130" y="702" type="curve"/>
      <point x="115" y="685" type="line"/>
      <point x="283" y="574"/>
      <point x="357" y="431"/>
      <point x="357" y="258" type="curve" smooth="yes"/>
      <point x="357" y="82"/>
      <point x="276" y="-64"/>
      <point x="115" y="-169" type="curve"/>
    </contour>
  </outline>
</glyph>
<glyph name="asterisk" format="2">
  <advance width="634"/>
  <unicode hex="002A"/>
  <outline>
    <contour>
      <point x="303" y="376" type="line"/>
      <point x="327" y="376" type="line"/>
      <point x="323" y="534" type="line"/>
      <point x="315" y="532" type="line"/>
      <point x="450" y="455" type="line"/>
      <point x="463" y="475" type="line"/>
      <point x="324" y="545" type="line"/>
      <point x="324" y="534" type="line"/>
      <point x="463" y="603" type="line"/>
      <point x="450" y="625" type="line"/>
      <point x="309" y="543" type="line"/>
      <point x="323" y="539" type="line"/>
      <point x="327" y="700" type="line"/>
      <point x="303" y="700" type="line"/>
      <point x="307" y="528" type="line"/>
      <point x="319" y="544" type="line"/>
      <point x="182" y="625" type="line"/>
      <point x="169" y="603" type="line"/>
      <point x="312" y="531" type="line"/>
      <point x="311" y="545" type="line"/>
      <point x="169" y="475" type="line"/>
      <point x="182" y="455" type="line"/>
      <point x="317" y="531" type="line"/>
      <point x="307" y="536" type="line"/>
    </contour>
  </outline>
</glyph>
<glyph name="plus" format="2">
  <advance width="760"/>
  <unicode hex="002B"/>
  <outline>
    <contour>
      <point x="369" y="42" type="line"/>
      <point x="391" y="42" type="line"/>
      <point x="391" y="525" type="line"/>
      <point x="369" y="525" type="line"/>
    </contour>
    <contour>
      <point x="145" y="277" type="line"/>
      <point x="615" y="277" type="line"/>
      <point x="615" y="299" type="line"/>
      <point x="145" y="299" type="line"/>
    </contour>
  </outline>
</glyph>
<glyph name="hyphen" format="2">
  <advance width="538"/>
  <unicode hex="002D"/>
  <outline>
    <contour>
      <point x="132" y="263" type="line"/>
      <point x="406" y="263" type="line"/>
      <point x="406" y="285" type="line"/>
      <point x="132" y="285" type="line"/>
    </contour>
  </outline>
</glyph>
<glyph name="period" format="2">
  <advance width="548"/>
  <unicode hex="002E"/>
  <outline>
    <contour>
      <point x="274" y="-5" type="curve" smooth="yes"/>
      <point x="293" y="-5"/>
      <point x="304" y="9"/>
      <point x="304" y="26" type="curve" smooth="yes"/>
      <point x="304" y="46"/>
      <point x="293" y="57"/>
      <point x="274" y="57" type="curve" smooth="yes"/>
      <point x="255" y="57"/>
      <point x="244" y="45"/>
      <point x="244" y="26" type="curve" smooth="yes"/>
      <point x="244" y="6"/>
      <point x="255" y="-5"/>
    </contour>
  </outline>
</glyph>
<glyph name="zero" format="2">
  <advance width="728"/>
  <unicode hex="0030"/>
  <outline>
    <contour>
      <point x="364" y="-10" type="curve" smooth="yes"/>
      <point x="532" y="-10"/>
      <point x="622" y="115"/>
      <point x="622" y="350" type="curve" smooth="yes"/>
      <point x="622" y="585"/>
      <point x="532" y="710"/>
      <point x="364" y="710" type="curve" smooth="yes"/>
      <point x="196" y="710"/>
      <point x="106" y="585"/>
      <point x="106" y="350" type="curve" smooth="yes"/>
      <point x="106" y="115"/>
      <point x="196" y="-10"/>
    </contour>
    <contour>
      <point x="364" y="12" type="curve" smooth="yes"/>
      <point x="213" y="12"/>
      <point x="129" y="133"/>
      <point x="129" y="350" type="curve" smooth="yes"/>
      <point x="129" y="567"/>
      <point x="213" y="688"/>
      <point x="364" y="688" type="curve" smooth="yes"/>
      <point x="516" y="688"/>
      <point x="599" y="567"/>
      <point x="599" y="350" type="curve" smooth="yes"/>
      <point x="599" y="133"/>
      <point x="516" y="12"/>
    </contour>
  </outline>
</glyph>
<glyph name="one" format="2">
  <advance width="492"/>
  <unicode hex="0031"/>
  <outline>
    <contour>
      <point x="232" y="8" type="line"/>
      <point x="254" y="8" type="line"/>
      <point x="254" y="710" type="line"/>
      <point x="244" y="710" type="line"/>
      <point x="92" y="605" type="line"/>
      <point x="98" y="585" type="line"/>
      <point x="237" y="678" type="line"/>
      <point x="232" y="678" type="line"/>
    </contour>
    <contour>
      <point x="115" y="0" type="line"/>
      <point x="372" y="0" type="line"/>
      <point x="372" y="22" type="line"/>
      <point x="115" y="22" type="line"/>
    </contour>
  </outline>
</glyph>
<glyph name="two" format="2">
  <advance width="685"/>
  <unicode hex="0032"/>
  <outline>
    <contour>
      <point x="137" y="0" type="line"/>
      <point x="565" y="0" type="line"/>
      <point x="565" y="22" type="line"/>
      <point x="153" y="22" type="line"/>
      <point x="153" y="4" type="line"/>
      <point x="444" y="314" type="line" smooth="yes"/>
      <point x="496" y="370"/>
      <point x="553" y="448"/>
      <point x="553" y="536" type="curve" smooth="yes"/>
      <point x="553" y="637"/>
      <point x="462" y="710"/>
      <point x="344" y="710" type="curve" smooth="yes"/>
      <point x="239" y="710"/>
      <point x="154" y="654"/>
      <point x="115" y="524" type="curve"/>
      <point x="136" y="514" type="line"/>
      <point x="175" y="646"/>
      <point x="263" y="688"/>
      <point x="342" y="688" type="curve" smooth="yes"/>
      <point x="450" y="688"/>
      <point x="530" y="622"/>
      <point x="530" y="535" type="curve" smooth="yes"/>
      <point x="530" y="448"/>
      <point x="462" y="367"/>
      <point x="421" y="323" type="curve" smooth="yes"/>
      <point x="131" y="13" type="line"/>
    </contour>
  </outline>
</glyph>
<glyph name="four" format="2">
  <advance width="678"/>
  <unicode hex="0034"/>
  <outline>
    <contour>
      <point x="474" y="0" type="line"/>
      <point x="496" y="0" type="line"/>
      <point x="496" y="700" type="line"/>
      <point x="476" y="700" type="line"/>
      <point x="75" y="212" type="line"/>
      <point x="86" y="190" type="line"/>
      <point x="618" y="190" type="line"/>
      <point x="618" y="212" type="line"/>
      <point x="94" y="212" type="line"/>
      <point x="97" y="204" type="line"/>
      <point x="488" y="681" type="line"/>
      <point x="474" y="681" type="line"/>
    </contour>
  </outline>
</glyph>
<glyph name="five" format="2">
  <advance width="679"/>
  <unicode hex="0035"/>
  <outline>
    <contour>
      <point x="328" y="-10" type="curve" smooth="yes"/>
      <point x="471" y="-10"/>
      <point x="579" y="97"/>
      <point x="579" y="237" type="curve" smooth="yes"/>
      <point x="579" y="371"/>
      <point x="481" y="464"/>
      <point x="353" y="464" type="curve" smooth="yes"/>
      <point x="275" y="464"/>
      <point x="206" y="434"/>
      <point x="148" y="387" type="curve"/>
      <point x="158" y="379" type="line"/>
      <point x="202" y="690" type="line"/>
      <point x="187" y="678" type="line"/>
      <point x="558" y="678" type="line"/>
      <point x="558" y="700" type="line"/>
      <point x="182" y="700" type="line"/>
      <point x="136" y="377" type="line"/>
      <point x="149" y="361" type="line"/>
      <point x="200" y="408"/>
      <point x="280" y="442"/>
      <point x="352" y="442" type="curve" smooth="yes"/>
      <point x="471" y="442"/>
      <point x="556" y="350"/>
      <point x="556" y="239" type="curve" smooth="yes"/>
      <point x="556" y="112"/>
      <point x="457" y="12"/>
      <point x="329" y="12" type="curve" smooth="yes"/>
      <point x="254" y="12"/>
      <point x="176" y="53"/>
      <point x="129" y="133" type="curve"/>
      <point x="110" y="115" type="line"/>
      <point x="161" y="35"/>
      <point x="236" y="-10"/>
    </contour>
  </outline>
</glyph>
<glyph name="six" format="2">
  <advance width="750"/>
  <unicode hex="0036"/>
  <outline>
    <contour>
      <point x="365" y="-10" type="curve" smooth="yes"/>
      <point x="493" y="-10"/>
      <point x="593" y="93"/>
      <point x="593" y="222" type="curve" smooth="yes"/>
      <point x="593" y="354"/>
      <point x="493" y="455"/>
      <point x="365" y="455" type="curve" smooth="yes"/>
      <point x="279" y="455"/>
      <point x="204" y="407"/>
      <point x="157" y="306" type="curve"/>
      <point x="163" y="303" type="line"/>
      <point x="163" y="339"/>
      <point x="198" y="419"/>
      <point x="253" y="501" type="curve" smooth="yes"/>
      <point x="382" y="695" type="line"/>
      <point x="380" y="700" type="line"/>
      <point x="358" y="700" type="line"/>
      <point x="226" y="501" type="line" smooth="yes"/>
      <point x="162" y="401"/>
      <point x="135" y="309"/>
      <point x="138" y="233" type="curve" smooth="yes"/>
      <point x="138" y="90"/>
      <point x="240" y="-10"/>
    </contour>
    <contour>
      <point x="368" y="12" type="curve" smooth="yes"/>
      <point x="252" y="12"/>
      <point x="162" y="104"/>
      <point x="162" y="221" type="curve" smooth="yes"/>
      <point x="162" y="340"/>
      <point x="252" y="433"/>
      <point x="368" y="433" type="curve" smooth="yes"/>
      <point x="480" y="433"/>
      <point x="570" y="340"/>
      <point x="570" y="223" type="curve" smooth="yes"/>
      <point x="570" y="104"/>
      <point x="480" y="12"/>
    </contour>
  </outline>
</glyph>
<glyph name="eight" format="2">
  <advance width="713"/>
  <unicode hex="0038"/>
  <outline>
    <contour>
      <point x="356" y="-3" type="curve" smooth="yes"/>
      <point x="488" y="-3"/>
      <point x="592" y="81"/>
      <point x="592" y="193" type="curve" smooth="yes"/>
      <point x="592" y="291"/>
      <point x="520" y="361"/>
      <point x="417" y="386" type="curve"/>
      <point x="413" y="374" type="line"/>
      <point x="505" y="390"/>
      <point x="561" y="460"/>
      <point x="561" y="530" type="curve" smooth="yes"/>
      <point x="561" y="637"/>
      <point x="471" y="710"/>
      <point x="356" y="710" type="curve" smooth="yes"/>
      <point x="243" y="710"/>
      <point x="152" y="637"/>
      <point x="152" y="530" type="curve" smooth="yes"/>
      <point x="152" y="460"/>
      <point x="208" y="386"/>
      <point x="299" y="374" type="curve"/>
      <point x="295" y="386" type="line"/>
      <point x="186" y="361"/>
      <point x="121" y="290"/>
      <point x="121" y="193" type="curve" smooth="yes"/>
      <point x="121" y="82"/>
      <point x="226" y="-3"/>
    </contour>
    <contour>
      <point x="356" y="19" type="curve" smooth="yes"/>
      <point x="240" y="19"/>
      <point x="144" y="102"/>
      <point x="144" y="191" type="curve" smooth="yes"/>
      <point x="144" y="295"/>
      <point x="235" y="368"/>
      <point x="356" y="368" type="curve" smooth="yes"/>
      <point x="479" y="368"/>
      <point x="569" y="295"/>
      <point x="569" y="191" type="curve" smooth="yes"/>
      <point x="569" y="100"/>
      <point x="473" y="19"/>
    </contour>
    <contour>
      <point x="356" y="388" type="curve" smooth="yes"/>
      <point x="252" y="388"/>
      <point x="175" y="452"/>
      <point x="175" y="537" type="curve" smooth="yes"/>
      <point x="175" y="621"/>
      <point x="252" y="688"/>
      <point x="356" y="688" type="curve" smooth="yes"/>
      <point x="461" y="688"/>
      <point x="538" y="621"/>
      <point x="538" y="537" type="curve" smooth="yes"/>
      <point x="538" y="449"/>
      <point x="461" y="388"/>
    </contour>
  </outline>
</glyph>
<glyph name="nine" format="2">
  <advance width="683"/>
  <unicode hex="0039"/>
  <outline>
    <contour>
      <point x="348" y="0" type="line"/>
      <point x="370" y="0" type="line"/>
      <point x="481" y="199" type="line" smooth="yes"/>
      <point x="533" y="292"/>
      <point x="580" y="384"/>
      <point x="580" y="476" type="curve" smooth="yes"/>
      <point x="580" y="613"/>
      <point x="479" y="710"/>
      <point x="353" y="710" type="curve" smooth="yes"/>
      <point x="225" y="710"/>
      <point x="125" y="607"/>
      <point x="125" y="478" type="curve" smooth="yes"/>
      <point x="125" y="346"/>
      <point x="225" y="245"/>
      <point x="353" y="245" type="curve" smooth="yes"/>
      <point x="438" y="245"/>
      <point x="508" y="290"/>
      <point x="559" y="387" type="curve"/>
      <point x="556" y="384" type="line"/>
      <point x="346" y="5" type="line"/>
    </contour>
    <contour>
      <point x="350" y="267" type="curve" smooth="yes"/>
      <point x="238" y="267"/>
      <point x="148" y="360"/>
      <point x="148" y="477" type="curve" smooth="yes"/>
      <point x="148" y="596"/>
      <point x="238" y="688"/>
      <point x="350" y="688" type="curve" smooth="yes"/>
      <point x="466" y="688"/>
      <point x="556" y="596"/>
      <point x="556" y="479" type="curve" smooth="yes"/>
      <point x="556" y="360"/>
      <point x="466" y="267"/>
    </contour>
  </outline>
</glyph>
<glyph name="less" format="2">
  <advance width="591"/>
  <unicode hex="003C"/>
  <outline>
    <contour>
      <point x="444" y="36" type="line"/>
      <point x="456" y="56" type="line"/>
      <point x="110" y="256" type="line"/>
      <point x="110" y="250" type="line"/>
      <point x="456" y="450" type="line"/>
      <point x="444" y="470" type="line"/>
      <point x="88" y="266" type="line"/>
      <point x="88" y="240" type="line"/>
    </contour>
  </outline>
</glyph>
<glyph name="greater" format="2">
  <advance width="589"/>
  <unicode hex="003E"/>
  <outline>
    <contour>
      <point x="147" y="36" type="line"/>
      <point x="503" y="240" type="line"/>
      <point x="503" y="266" type="line"/>
      <point x="147" y="470" type="line"/>
      <point x="135" y="450" type="line"/>
      <point x="481" y="250" type="line"/>
      <point x="481" y="256" type="line"/>
      <point x="135" y="56" type="line"/>
    </contour>
  </outline>
</glyph>
<glyph name="question" format="2">
  <advance width="616"/>
  <unicode hex="003F"/>
  <outline>
    <contour>
      <point x="284" y="146" type="line"/>
      <point x="304" y="146" type="line"/>
      <point x="306" y="300" type="line"/>
      <point x="422" y="330"/>
      <point x="496" y="417"/>
      <point x="496" y="522" type="curve" smooth="yes"/>
      <point x="496" y="627"/>
      <point x="415" y="710"/>
      <point x="298" y="710" type="curve" smooth="yes"/>
      <point x="206" y="710"/>
      <point x="129" y="656"/>
      <point x="98" y="559" type="curve"/>
      <point x="116" y="547" type="line"/>
      <point x="151" y="650"/>
      <point x="222" y="688"/>
      <point x="299" y="688" type="curve" smooth="yes"/>
      <point x="407" y="688"/>
      <point x="473" y="609"/>
      <point x="473" y="522" type="curve" smooth="yes"/>
      <point x="473" y="423"/>
      <point x="406" y="344"/>
      <point x="282" y="315" type="curve"/>
    </contour>
    <contour>
      <point x="272" y="20" type="curve" smooth="yes"/>
      <point x="272" y="1"/>
      <point x="281" y="-10"/>
      <point x="298" y="-10" type="curve" smooth="yes"/>
      <point x="315" y="-10"/>
      <point x="324" y="4"/>
      <point x="324" y="20" type="curve" smooth="yes"/>
      <point x="324" y="39"/>
      <point x="317" y="50"/>
      <point x="298" y="50" type="curve" smooth="yes"/>
      <point x="282" y="50"/>
      <point x="272" y="37"/>
    </contour>
  </outline>
</glyph>
<glyph name="at" format="2">
  <advance width="1086"/>
  <unicode hex="0040"/>
  <outline>
    <contour>
      <point x="474" y="-162" type="curve" smooth="yes"/>
      <point x="555" y="-162"/>
      <point x="658" y="-134"/>
      <point x="727" y="-91" type="curve"/>
      <point x="715" y="-73" type="line"/>
      <point x="660" y="-108"/>
      <point x="544" y="-140"/>
      <point x="474" y="-140" type="curve" smooth="yes"/>
      <point x="273" y="-140"/>
      <point x="128" y="6"/>
      <point x="128" y="231" type="curve" smooth="yes"/>
      <point x="128" y="456"/>
      <point x="314" y="688"/>
      <point x="597" y="688" type="curve" smooth="yes"/>
      <point x="805" y="688"/>
      <point x="958" y="573"/>
      <point x="958" y="382" type="curve" smooth="yes"/>
      <point x="958" y="178"/>
      <point x="846" y="77"/>
      <point x="747" y="77" type="curve" smooth="yes"/>
      <point x="684" y="77"/>
      <point x="690" y="108"/>
      <point x="703" y="177" type="curve" smooth="yes"/>
      <point x="766" y="501" type="line"/>
      <point x="744" y="501" type="line"/>
      <point x="719" y="362" type="line"/>
      <point x="729" y="370" type="line"/>
      <point x="703" y="475"/>
      <point x="623" y="510"/>
      <point x="551" y="510" type="curve" smooth="yes"/>
      <point x="419" y="510"/>
      <point x="324" y="381"/>
      <point x="324" y="231" type="curve" smooth="yes"/>
      <point x="324" y="126"/>
      <point x="396" y="55"/>
      <point x="493" y="55" type="curve" smooth="yes"/>
      <point x="589" y="55"/>
      <point x="672" y="118"/>
      <point x="706" y="218" type="curve"/>
      <point x="696" y="229" type="line"/>
      <point x="680" y="184"/>
      <point x="671" y="155"/>
      <point x="671" y="128" type="curve" smooth="yes"/>
      <point x="671" y="90"/>
      <point x="688" y="55"/>
      <point x="749" y="55" type="curve" smooth="yes"/>
      <point x="862" y="55"/>
      <point x="981" y="177"/>
      <point x="981" y="384" type="curve" smooth="yes"/>
      <point x="981" y="573"/>
      <point x="823" y="710"/>
      <point x="596" y="710" type="curve" smooth="yes"/>
      <point x="304" y="710"/>
      <point x="105" y="482"/>
      <point x="105" y="224" type="curve" smooth="yes"/>
      <point x="105" y="-5"/>
      <point x="257" y="-162"/>
    </contour>
    <contour>
      <point x="495" y="77" type="curve" smooth="yes"/>
      <point x="407" y="77"/>
      <point x="347" y="141"/>
      <point x="347" y="232" type="curve" smooth="yes"/>
      <point x="347" y="383"/>
      <point x="447" y="488"/>
      <point x="551" y="488" type="curve" smooth="yes"/>
      <point x="657" y="488"/>
      <point x="712" y="403"/>
      <point x="712" y="335" type="curve" smooth="yes"/>
      <point x="712" y="327"/>
      <point x="710" y="312"/>
      <point x="709" y="305" type="curve" smooth="yes"/>
      <point x="687" y="158"/>
      <point x="606" y="77"/>
    </contour>
  </outline>
</glyph>
<glyph name="A" format="2">
  <advance width="754"/>
  <unicode hex="0041"/>
  <anchor x="378" y="0" name="bottom"/>
  <anchor x="637" y="0" name="ogonek"/>
  <anchor x="378" y="700" name="top"/>
  <outline>
    <contour>
      <point x="92" y="0" type="line"/>
      <point x="118" y="0" type="line"/>
      <point x="309" y="503" type="line" smooth="yes"/>
      <point x="319" y="530"/>
      <point x="364" y="646"/>
      <point x="381" y="694" type="curve"/>
      <point x="370" y="695" type="line"/>
      <point x="400" y="620"/>
      <point x="437" y="522"/>
      <point x="444" y="504" type="curve" smooth="yes"/>
      <point x="637" y="0" type="line"/>
      <point x="663" y="0" type="line"/>
      <point x="394" y="700" type="line"/>
      <point x="361" y="700" type="line"/>
    </contour>
    <contour>
      <point x="192" y="230" type="line"/>
      <point x="565" y="230" type="line"/>
      <point x="557" y="253" type="line"/>
      <point x="200" y="253" type="line"/>
    </contour>
  </outline>
</glyph>
<glyph name="B" format="2">
  <advance width="816"/>
  <unicode hex="0042"/>
  <anchor x="410" y="0" name="bottom"/>
  <anchor x="410" y="700" name="top"/>
  <outline>
    <contour>
      <point x="194" y="0" type="line"/>
      <point x="455" y="0" type="line" smooth="yes"/>
      <point x="616" y="0"/>
      <point x="681" y="84"/>
      <point x="681" y="192" type="curve" smooth="yes"/>
      <point x="681" y="289"/>
      <point x="613" y="365"/>
      <point x="479" y="374" type="curve"/>
      <point x="485" y="361" type="line"/>
      <point x="581" y="376"/>
      <point x="644" y="446"/>
      <point x="644" y="531" type="curve" smooth="yes"/>
      <point x="644" y="624"/>
      <point x="573" y="700"/>
      <point x="462" y="700" type="curve" smooth="yes"/>
      <point x="194" y="700" type="line"/>
    </contour>
    <contour>
      <point x="215" y="22" type="line"/>
      <point x="215" y="356" type="line"/>
      <point x="461" y="356" type="line" smooth="yes"/>
      <point x="586" y="356"/>
      <point x="658" y="287"/>
      <point x="658" y="188" type="curve" smooth="yes"/>
      <point x="658" y="95"/>
      <point x="601" y="22"/>
      <point x="456" y="22" type="curve" smooth="yes"/>
    </contour>
    <contour>
      <point x="215" y="378" type="line"/>
      <point x="215" y="678" type="line"/>
      <point x="459" y="678" type="line" smooth="yes"/>
      <point x="559" y="678"/>
      <point x="621" y="613"/>
      <point x="621" y="532" type="curve" smooth="yes"/>
      <point x="621" y="447"/>
      <point x="547" y="378"/>
      <point x="456" y="378" type="curve" smooth="yes"/>
    </contour>
  </outline>
</glyph>
<glyph name="C" format="2">
  <advance width="861"/>
  <unicode hex="0043"/>
  <anchor x="465" y="0" name="bottom"/>
  <anchor x="479" y="700" name="top"/>
  <outline>
    <contour>
      <point x="479" y="-10" type="curve" smooth="yes"/>
      <point x="575" y="-10"/>
      <point x="659" y="24"/>
      <point x="719" y="81" type="curve"/>
      <point x="704" y="99" type="line"/>
      <point x="648" y="44"/>
      <point x="570" y="12"/>
      <point x="479" y="12" type="curve" smooth="yes"/>
      <point x="294" y="12"/>
      <point x="158" y="151"/>
      <point x="158" y="346" type="curve" smooth="yes"/>
      <point x="158" y="543"/>
      <point x="294" y="688"/>
      <point x="479" y="688" type="curve" smooth="yes"/>
      <point x="576" y="688"/>
      <point x="658" y="645"/>
      <point x="717" y="578" type="curve"/>
      <point x="735" y="594" type="line"/>
      <point x="672" y="665"/>
      <point x="584" y="710"/>
      <point x="479" y="710" type="curve" smooth="yes"/>
      <point x="278" y="710"/>
      <point x="135" y="558"/>
      <point x="135" y="346" type="curve" smooth="yes"/>
      <point x="135" y="137"/>
      <point x="278" y="-10"/>
    </contour>
  </outline>
</glyph>
<glyph name="E" format="2">
  <advance width="735"/>
  <unicode hex="0045"/>
  <anchor x="367" y="0" name="bottom"/>
  <anchor x="559" y="0" name="ogonek"/>
  <anchor x="397" y="700" name="top"/>
  <anchor x="104" y="700" name="topleft"/>
  <outline>
    <contour>
      <point x="194" y="0" type="line"/>
      <point x="579" y="0" type="line"/>
      <point x="579" y="22" type="line"/>
      <point x="216" y="22" type="line"/>
      <point x="216" y="678" type="line"/>
      <point x="585" y="678" type="line"/>
      <point x="585" y="700" type="line"/>
      <point x="194" y="700" type="line"/>
    </contour>
    <contour>
      <point x="207" y="351" type="line"/>
      <point x="527" y="351" type="line"/>
      <point x="527" y="373" type="line"/>
      <point x="207" y="373" type="line"/>
    </contour>
  </outline>
</glyph>
<glyph name="F" format="2">
  <advance width="749"/>
  <unicode hex="0046"/>
  <anchor x="372" y="0" name="bottom"/>
  <anchor x="372" y="700" name="top"/>
  <outline>
    <contour>
      <point x="194" y="0" type="line"/>
      <point x="216" y="0" type="line"/>
      <point x="216" y="700" type="line"/>
      <point x="194" y="700" type="line"/>
    </contour>
    <contour>
      <point x="206" y="341" type="line"/>
      <point x="528" y="341" type="line"/>
      <point x="528" y="363" type="line"/>
      <point x="206" y="363" type="line"/>
    </contour>
    <contour>
      <point x="207" y="678" type="line"/>
      <point x="585" y="678" type="line"/>
      <point x="585" y="700" type="line"/>
      <point x="207" y="700" type="line"/>
    </contour>
  </outline>
</glyph>
<glyph name="G" format="2">
  <advance width="924"/>
  <unicode hex="0047"/>
  <anchor x="464" y="0" name="bottom"/>
  <anchor x="486" y="700" name="top"/>
  <outline>
    <contour>
      <point x="480" y="-10" type="curve" smooth="yes"/>
      <point x="679" y="-10"/>
      <point x="802" y="111"/>
      <point x="802" y="339" type="curve" smooth="yes"/>
      <point x="802" y="343"/>
      <point x="802" y="346"/>
      <point x="802" y="358" type="curve"/>
      <point x="489" y="358" type="line"/>
      <point x="489" y="336" type="line"/>
      <point x="785" y="336" type="line"/>
      <point x="779" y="341" type="line"/>
      <point x="779" y="322" type="line" smooth="yes"/>
      <point x="779" y="138"/>
      <point x="672" y="12"/>
      <point x="480" y="12" type="curve" smooth="yes"/>
      <point x="295" y="12"/>
      <point x="158" y="151"/>
      <point x="158" y="346" type="curve" smooth="yes"/>
      <point x="158" y="543"/>
      <point x="294" y="688"/>
      <point x="479" y="688" type="curve" smooth="yes"/>
      <point x="584" y="688"/>
      <point x="674" y="640"/>
      <point x="731" y="564" type="curve"/>
      <point x="748" y="580" type="line"/>
      <point x="684" y="659"/>
      <point x="592" y="710"/>
      <point x="479" y="710" type="curve" smooth="yes"/>
      <point x="278" y="710"/>
      <point x="135" y="558"/>
      <point x="135" y="346" type="curve" smooth="yes"/>
      <point x="135" y="137"/>
      <point x="279" y="-10"/>
    </contour>
  </outline>
</glyph>
<glyph name="H" format="2">
  <advance width="900"/>
  <unicode hex="0048"/>
  <anchor x="450" y="0" name="bottom"/>
  <anchor x="450" y="350" name="center"/>
  <anchor x="450" y="700" name="top"/>
  <anchor x="104" y="700" name="topleft"/>
  <outline>
    <contour>
      <point x="683" y="0" type="line"/>
      <point x="705" y="0" type="line"/>
      <point x="705" y="700" type="line"/>
      <point x="683" y="700" type="line"/>
    </contour>
    <contour>
      <point x="194" y="0" type="line"/>
      <point x="216" y="0" type="line"/>
      <point x="216" y="700" type="line"/>
      <point x="194" y="700" type="line"/>
    </contour>
    <contour>
      <point x="205" y="338" type="line"/>
      <point x="694" y="338" type="line"/>
      <point x="694" y="360" type="line"/>
      <point x="205" y="360" type="line"/>
    </contour>
  </outline>
</glyph>
<glyph name="J" format="2">
  <advance width="644"/>
  <unicode hex="004A"/>
  <anchor x="365" y="0" name="bottom"/>
  <anchor x="470" y="700" name="top"/>
  <outline>
    <contour>
      <point x="294" y="-10" type="curve" smooth="yes"/>
      <point x="407" y="-10"/>
      <point x="488" y="58"/>
      <point x="488" y="213" type="curve" smooth="yes"/>
      <point x="488" y="678" type="line"/>
      <point x="594" y="678" type="line"/>
      <point x="594" y="700" type="line"/>
      <point x="337" y="700" type="line"/>
      <point x="337" y="678" type="line"/>
      <point x="466" y="678" type="line"/>
      <point x="466" y="213" type="line" smooth="yes"/>
      <point x="466" y="72"/>
      <point x="396" y="12"/>
      <point x="296" y="12" type="curve" smooth="yes"/>
      <point x="216" y="12"/>
      <point x="158" y="51"/>
      <point x="121" y="135" type="curve"/>
      <point x="105" y="120" type="line"/>
      <point x="137" y="40"/>
      <point x="202" y="-10"/>
    </contour>
  </outline>
</glyph>
<glyph name="K" format="2">
  <advance width="835"/>
  <unicode hex="004B"/>
  <anchor x="402" y="0" name="bottom"/>
  <anchor x="402" y="700" name="top"/>
  <outline>
    <contour>
      <point x="204" y="234" type="line"/>
      <point x="682" y="700" type="line"/>
      <point x="650" y="700" type="line"/>
      <point x="204" y="265" type="line"/>
    </contour>
    <contour>
      <point x="194" y="0" type="line"/>
      <point x="216" y="0" type="line"/>
      <point x="216" y="700" type="line"/>
      <point x="194" y="700" type="line"/>
    </contour>
    <contour>
      <point x="671" y="0" type="line"/>
      <point x="700" y="0" type="line"/>
      <point x="383" y="420" type="line"/>
      <point x="366" y="404" type="line"/>
    </contour>
  </outline>
</glyph>
<glyph name="M" format="2">
  <advance width="1007"/>
  <unicode hex="004D"/>
  <anchor x="504" y="0" name="bottom"/>
  <anchor x="504" y="700" name="top"/>
  <outline>
    <contour>
      <point x="194" y="0" type="line"/>
      <point x="216" y="0" type="line"/>
      <point x="216" y="545" type="line" smooth="yes"/>
      <point x="216" y="594"/>
      <point x="215" y="640"/>
      <point x="213" y="684" type="curve"/>
      <point x="203" y="672" type="line"/>
      <point x="496" y="204" type="line"/>
      <point x="511" y="204" type="line"/>
      <point x="809" y="679" type="line"/>
      <point x="793" y="684" type="line"/>
      <point x="791" y="637"/>
      <point x="790" y="590"/>
      <point x="790" y="543" type="curve" smooth="yes"/>
      <point x="790" y="0" type="line"/>
      <point x="812" y="0" type="line"/>
      <point x="812" y="700" type="line"/>
      <point x="795" y="700" type="line"/>
      <point x="502" y="232" type="line"/>
      <point x="505" y="232" type="line"/>
      <point x="211" y="700" type="line"/>
      <point x="194" y="700" type="line"/>
    </contour>
  </outline>
</glyph>
<glyph name="N" format="2">
  <advance width="899"/>
  <unicode hex="004E"/>
  <anchor x="450" y="0" name="bottom"/>
  <anchor x="450" y="700" name="top"/>
  <outline>
    <contour>
      <point x="194" y="0" type="line"/>
      <point x="216" y="0" type="line"/>
      <point x="216" y="470" type="line" smooth="yes"/>
      <point x="216" y="543"/>
      <point x="215" y="653"/>
      <point x="214" y="686" type="curve"/>
      <point x="199" y="686" type="line"/>
      <point x="684" y="0" type="line"/>
      <point x="704" y="0" type="line"/>
      <point x="704" y="700" type="line"/>
      <point x="682" y="700" type="line"/>
      <point x="682" y="241" type="line" smooth="yes"/>
      <point x="682" y="92"/>
      <point x="683" y="60"/>
      <point x="685" y="31" type="curve"/>
      <point x="689" y="31" type="line"/>
      <point x="216" y="700" type="line"/>
      <point x="194" y="700" type="line"/>
    </contour>
  </outline>
</glyph>
<glyph name="O" format="2">
  <advance width="958"/>
  <unicode hex="004F"/>
  <anchor x="479" y="0" name="bottom"/>
  <anchor x="479" y="350" name="center"/>
  <anchor x="566" y="0" name="ogonek"/>
  <anchor x="479" y="700" name="top"/>
  <anchor x="100" y="700" name="topleft"/>
  <anchor x="858" y="700" name="topright"/>
  <outline>
    <contour>
      <point x="479" y="-10" type="curve" smooth="yes"/>
      <point x="680" y="-10"/>
      <point x="823" y="138"/>
      <point x="823" y="349" type="curve" smooth="yes"/>
      <point x="823" y="561"/>
      <point x="680" y="710"/>
      <point x="479" y="710" type="curve" smooth="yes"/>
      <point x="278" y="710"/>
      <point x="135" y="560"/>
      <point x="135" y="349" type="curve" smooth="yes"/>
      <point x="135" y="138"/>
      <point x="278" y="-10"/>
    </contour>
    <contour>
      <point x="479" y="12" type="curve" smooth="yes"/>
      <point x="294" y="12"/>
      <point x="158" y="153"/>
      <point x="158" y="349" type="curve" smooth="yes"/>
      <point x="158" y="545"/>
      <point x="294" y="688"/>
      <point x="479" y="688" type="curve" smooth="yes"/>
      <point x="666" y="688"/>
      <point x="800" y="545"/>
      <point x="800" y="349" type="curve" smooth="yes"/>
      <point x="800" y="153"/>
      <point x="666" y="12"/>
    </contour>
  </outline>
</glyph>
<glyph name="Q" format="2">
  <advance width="958"/>
  <unicode hex="0051"/>
  <anchor x="479" y="0" name="bottom"/>
  <anchor x="479" y="700" name="top"/>
  <anchor x="479" y="350" name="center"/>
  <anchor x="566" y="0" name="ogonek"/>
  <anchor x="100" y="700" name="topleft"/>
  <anchor x="858" y="700" name="topright"/>
  <outline>
    <contour>
      <point x="732" y="-78" type="line"/>
      <point x="749" y="-65" type="line"/>
      <point x="496" y="272" type="line"/>
      <point x="478" y="260" type="line"/>
    </contour>
    <component base="O"/>
  </outline>
</glyph>
<glyph name="U" format="2">
  <advance width="908"/>
  <unicode hex="0055"/>
  <anchor x="454" y="0" name="bottom"/>
  <anchor x="605" y="-6" name="ogonek"/>
  <anchor x="454" y="700" name="top"/>
  <anchor x="806" y="700" name="topright"/>
  <outline>
    <contour>
      <point x="450" y="-6" type="curve" smooth="yes"/>
      <point x="605" y="-6"/>
      <point x="716" y="109"/>
      <point x="716" y="269" type="curve" smooth="yes"/>
      <point x="716" y="700" type="line"/>
      <point x="694" y="700" type="line"/>
      <point x="694" y="278" type="line" smooth="yes"/>
      <point x="694" y="125"/>
      <point x="594" y="16"/>
      <point x="450" y="16" type="curve" smooth="yes"/>
      <point x="310" y="16"/>
      <point x="214" y="125"/>
      <point x="214" y="278" type="curve" smooth="yes"/>
      <point x="214" y="700" type="line"/>
      <point x="192" y="700" type="line"/>
      <point x="192" y="269" type="line" smooth="yes"/>
      <point x="192" y="109"/>
      <point x="299" y="-6"/>
    </contour>
  </outline>
</glyph>
<glyph name="V" format="2">
  <advance width="744"/>
  <unicode hex="0056"/>
  <anchor x="372" y="0" name="bottom"/>
  <anchor x="372" y="700" name="top"/>
  <outline>
    <contour>
      <point x="358" y="0" type="line"/>
      <point x="385" y="0" type="line"/>
      <point x="654" y="700" type="line"/>
      <point x="628" y="700" type="line"/>
      <point x="390" y="74" type="line" smooth="yes"/>
      <point x="376" y="37"/>
      <point x="367" y="15"/>
      <point x="365" y="8" type="curve"/>
      <point x="378" y="8" type="line"/>
      <point x="375" y="15"/>
      <point x="367" y="38"/>
      <point x="352" y="76" type="curve" smooth="yes"/>
      <point x="116" y="700" type="line"/>
      <point x="90" y="700" type="line"/>
    </contour>
  </outline>
</glyph>
<glyph name="W" format="2">
  <advance width="989"/>
  <unicode hex="0057"/>
  <anchor x="495" y="0" name="bottom"/>
  <anchor x="495" y="700" name="top"/>
  <outline>
    <contour>
      <point x="286" y="0" type="line"/>
      <point x="312" y="0" type="line"/>
      <point x="504" y="499" type="line"/>
      <point x="485" y="499" type="line"/>
      <point x="677" y="0" type="line"/>
      <point x="703" y="0" type="line"/>
      <point x="899" y="700" type="line"/>
      <point x="875" y="700" type="line"/>
      <point x="733" y="193" type="line" smooth="yes"/>
      <point x="703" y="84"/>
      <point x="714" y="123"/>
      <point x="682" y="15" type="curve"/>
      <point x="695" y="15" type="line"/>
      <point x="639" y="154"/>
      <point x="630" y="179"/>
      <point x="621" y="202" type="curve" smooth="yes"/>
      <point x="502" y="520" type="line"/>
      <point x="487" y="520" type="line"/>
      <point x="367" y="202" type="line" smooth="yes"/>
      <point x="349" y="156"/>
      <point x="334" y="113"/>
      <point x="294" y="15" type="curve"/>
      <point x="306" y="15" type="line"/>
      <point x="282" y="95"/>
      <point x="278" y="113"/>
      <point x="256" y="193" type="curve" smooth="yes"/>
      <point x="114" y="700" type="line"/>
      <point x="90" y="700" type="line"/>
    </contour>
  </outline>
</glyph>
<glyph name="X" format="2">
  <advance width="720"/>
  <unicode hex="0058"/>
  <anchor x="360" y="0" name="bottom"/>
  <anchor x="360" y="700" name="top"/>
  <outline>
    <contour>
      <point x="601" y="0" type="line"/>
      <point x="630" y="0" type="line"/>
      <point x="363" y="366" type="line"/>
      <point x="124" y="700" type="line"/>
      <point x="95" y="700" type="line"/>
      <point x="349" y="349" type="line"/>
    </contour>
    <contour>
      <point x="90" y="0" type="line"/>
      <point x="118" y="0" type="line"/>
      <point x="365" y="350" type="line"/>
      <point x="349" y="363" type="line"/>
    </contour>
    <contour>
      <point x="367" y="352" type="line"/>
      <point x="620" y="700" type="line"/>
      <point x="592" y="700" type="line"/>
      <point x="350" y="365" type="line"/>
    </contour>
  </outline>
</glyph>
<glyph name="Z" format="2">
  <advance width="719"/>
  <unicode hex="005A"/>
  <anchor x="357" y="0" name="bottom"/>
  <anchor x="357" y="350" name="center"/>
  <anchor x="357" y="700" name="top"/>
  <outline>
    <contour>
      <point x="100" y="0" type="line"/>
      <point x="614" y="0" type="line"/>
      <point x="614" y="22" type="line"/>
      <point x="115" y="22" type="line"/>
      <point x="118" y="10" type="line"/>
      <point x="603" y="677" type="line"/>
      <point x="603" y="700" type="line"/>
      <point x="126" y="700" type="line"/>
      <point x="126" y="678" type="line"/>
      <point x="597" y="678" type="line"/>
      <point x="585" y="692" type="line"/>
      <point x="100" y="24" type="line"/>
    </contour>
  </outline>
</glyph>
<glyph name="backslash" format="2">
  <advance width="758"/>
  <unicode hex="005C"/>
  <outline>
    <contour>
      <point x="540" y="-95" type="line"/>
      <point x="566" y="-95" type="line"/>
      <point x="172" y="700" type="line"/>
      <point x="146" y="700" type="line"/>
    </contour>
  </outline>
</glyph>
<glyph name="bracketright" format="2">
  <advance width="423"/>
  <unicode hex="005D"/>
  <outline>
    <contour>
      <point x="66" y="-190" type="line"/>
      <point x="278" y="-190" type="line"/>
      <point x="278" y="700" type="line"/>
      <point x="66" y="700" type="line"/>
      <point x="66" y="678" type="line"/>
      <point x="266" y="678" type="line"/>
      <point x="255" y="690" type="line"/>
      <point x="255" y="-176" type="line"/>
      <point x="265" y="-168" type="line"/>
      <point x="66" y="-168" type="line"/>
    </contour>
  </outline>
</glyph>
<glyph name="underscore" format="2">
  <advance width="840"/>
  <unicode hex="005F"/>
  <outline>
    <contour>
      <point x="128" y="-105" type="line"/>
      <point x="712" y="-105" type="line"/>
      <point x="712" y="-82" type="line"/>
      <point x="128" y="-82" type="line"/>
    </contour>
  </outline>
</glyph>
<glyph name="a" format="2">
  <advance width="811"/>
  <unicode hex="0061"/>
  <anchor x="383" y="0" name="bottom"/>
  <anchor x="614" y="0" name="ogonek"/>
  <anchor x="383" y="525" name="top"/>
  <outline>
    <contour>
      <point x="376" y="-10" type="curve" smooth="yes"/>
      <point x="487" y="-10"/>
      <point x="577" y="67"/>
      <point x="601" y="175" type="curve"/>
      <point x="592" y="172" type="line"/>
      <point x="592" y="0" type="line"/>
      <point x="614" y="0" type="line"/>
      <point x="614" y="525" type="line"/>
      <point x="594" y="525" type="line"/>
      <point x="592" y="353" type="line"/>
      <point x="598" y="350" type="line"/>
      <point x="579" y="457"/>
      <point x="484" y="530"/>
      <point x="372" y="530" type="curve" smooth="yes"/>
      <point x="235" y="530"/>
      <point x="122" y="415"/>
      <point x="122" y="258" type="curve" smooth="yes"/>
      <point x="122" y="102"/>
      <point x="229" y="-10"/>
    </contour>
    <contour>
      <point x="376" y="12" type="curve" smooth="yes"/>
      <point x="239" y="12"/>
      <point x="145" y="117"/>
      <point x="145" y="258" type="curve" smooth="yes"/>
      <point x="145" y="403"/>
      <point x="239" y="508"/>
      <point x="374" y="508" type="curve" smooth="yes"/>
      <point x="499" y="508"/>
      <point x="593" y="404"/>
      <point x="593" y="260" type="curve" smooth="yes"/>
      <point x="593" y="113"/>
      <point x="499" y="12"/>
    </contour>
  </outline>
</glyph>
<glyph name="d" format="2">
  <advance width="842"/>
  <unicode hex="0064"/>
  <anchor x="392" y="0" name="bottom"/>
  <anchor x="591" y="634" name="center"/>
  <anchor x="392" y="740" name="top"/>
  <anchor x="662" y="740" name="topright"/>
  <outline>
    <contour>
      <point x="384" y="-10" type="curve" smooth="yes"/>
      <point x="492" y="-10"/>
      <point x="582" y="67"/>
      <point x="609" y="175" type="curve"/>
      <point x="600" y="172" type="line"/>
      <point x="600" y="0" type="line"/>
      <point x="622" y="0" type="line"/>
      <point x="622" y="740" type="line"/>
      <point x="600" y="740" type="line"/>
      <point x="600" y="353" type="line"/>
      <point x="606" y="350" type="line"/>
      <point x="587" y="453"/>
      <point x="487" y="530"/>
      <point x="380" y="530" type="curve" smooth="yes"/>
      <point x="243" y="530"/>
      <point x="130" y="415"/>
      <point x="130" y="258" type="curve" smooth="yes"/>
      <point x="130" y="102"/>
      <point x="237" y="-10"/>
    </contour>
    <contour>
      <point x="383" y="12" type="curve" smooth="yes"/>
      <point x="246" y="12"/>
      <point x="152" y="117"/>
      <point x="152" y="258" type="curve" smooth="yes"/>
      <point x="152" y="403"/>
      <point x="246" y="508"/>
      <point x="381" y="508" type="curve" smooth="yes"/>
      <point x="506" y="508"/>
      <point x="600" y="404"/>
      <point x="600" y="260" type="curve" smooth="yes"/>
      <point x="600" y="113"/>
      <point x="506" y="12"/>
    </contour>
  </outline>
</glyph>
<glyph name="e" format="2">
  <advance width="730"/>
  <unicode hex="0065"/>
  <anchor x="377" y="0" name="bottom"/>
  <anchor x="546" y="0" name="ogonek"/>
  <anchor x="365" y="525" name="top"/>
  <outline>
    <contour>
      <point x="377" y="-10" type="curve" smooth="yes"/>
      <point x="453" y="-10"/>
      <point x="515" y="20"/>
      <point x="564" y="65" type="curve"/>
      <point x="552" y="83" type="line"/>
      <point x="505" y="39"/>
      <point x="446" y="12"/>
      <point x="377" y="12" type="curve" smooth="yes"/>
      <point x="240" y="12"/>
      <point x="143" y="116"/>
      <point x="142" y="263" type="curve" smooth="yes"/>
      <point x="143" y="406"/>
      <point x="232" y="508"/>
      <point x="368" y="508" type="curve" smooth="yes"/>
      <point x="479" y="508"/>
      <point x="568" y="422"/>
      <point x="568" y="295" type="curve"/>
      <point x="566" y="270" type="line"/>
      <point x="578" y="287" type="line"/>
      <point x="132" y="287" type="line"/>
      <point x="132" y="265" type="line"/>
      <point x="589" y="265" type="line"/>
      <point x="590" y="291" type="line" smooth="yes"/>
      <point x="596" y="438"/>
      <point x="497" y="530"/>
      <point x="365" y="530" type="curve" smooth="yes"/>
      <point x="221" y="530"/>
      <point x="120" y="420"/>
      <point x="120" y="263" type="curve" smooth="yes"/>
      <point x="120" y="104"/>
      <point x="225" y="-10"/>
    </contour>
  </outline>
</glyph>
<glyph name="g" format="2">
  <advance width="822"/>
  <unicode hex="0067"/>
  <anchor x="392" y="-230" name="bottom"/>
  <anchor x="382" y="525" name="top"/>
  <outline>
    <contour>
      <point x="384" y="-240" type="curve" smooth="yes"/>
      <point x="515" y="-240"/>
      <point x="622" y="-142"/>
      <point x="622" y="21" type="curve" smooth="yes"/>
      <point x="622" y="525" type="line"/>
      <point x="602" y="525" type="line"/>
      <point x="600" y="353" type="line"/>
      <point x="606" y="350" type="line"/>
      <point x="587" y="453"/>
      <point x="487" y="530"/>
      <point x="380" y="530" type="curve" smooth="yes"/>
      <point x="243" y="530"/>
      <point x="130" y="415"/>
      <point x="130" y="258" type="curve" smooth="yes"/>
      <point x="130" y="102"/>
      <point x="237" y="-10"/>
      <point x="384" y="-10" type="curve" smooth="yes"/>
      <point x="492" y="-10"/>
      <point x="582" y="67"/>
      <point x="609" y="175" type="curve"/>
      <point x="600" y="172" type="line"/>
      <point x="600" y="30" type="line" smooth="yes"/>
      <point x="600" y="-123"/>
      <point x="498" y="-218"/>
      <point x="383" y="-218" type="curve" smooth="yes"/>
      <point x="312" y="-218"/>
      <point x="255" y="-190"/>
      <point x="214" y="-146" type="curve"/>
      <point x="203" y="-166" type="line"/>
      <point x="246" y="-214"/>
      <point x="312" y="-240"/>
    </contour>
    <contour>
      <point x="383" y="12" type="curve" smooth="yes"/>
      <point x="247" y="12"/>
      <point x="152" y="117"/>
      <point x="152" y="258" type="curve" smooth="yes"/>
      <point x="152" y="403"/>
      <point x="246" y="508"/>
      <point x="381" y="508" type="curve" smooth="yes"/>
      <point x="506" y="508"/>
      <point x="600" y="404"/>
      <point x="600" y="260" type="curve" smooth="yes"/>
      <point x="600" y="113"/>
      <point x="506" y="12"/>
    </contour>
  </outline>
</glyph>
<glyph name="h" format="2">
  <advance width="841"/>
  <unicode hex="0068"/>
  <guideline x="263" y="638" angle="0"/>
  <anchor x="419" y="0" name="bottom"/>
  <anchor x="266" y="638" name="center"/>
  <anchor x="419" y="740" name="top"/>
  <outline>
    <contour>
      <point x="218" y="0" type="line"/>
      <point x="223" y="0"/>
      <point x="226" y="0"/>
      <point x="229" y="0" type="curve" smooth="yes"/>
      <point x="240" y="0" type="line"/>
      <point x="240" y="376" type="line" smooth="yes"/>
      <point x="240" y="417"/>
      <point x="321" y="508"/>
      <point x="434" y="508" type="curve" smooth="yes"/>
      <point x="539" y="508"/>
      <point x="599" y="455"/>
      <point x="599" y="328" type="curve" smooth="yes"/>
      <point x="599" y="0" type="line"/>
      <point x="621" y="0" type="line"/>
      <point x="621" y="328" type="line" smooth="yes"/>
      <point x="621" y="469"/>
      <point x="553" y="530"/>
      <point x="436" y="530" type="curve" smooth="yes"/>
      <point x="340" y="530"/>
      <point x="254" y="471"/>
      <point x="231" y="402" type="curve"/>
      <point x="240" y="404" type="line"/>
      <point x="240" y="740" type="line"/>
      <point x="218" y="740" type="line"/>
    </contour>
  </outline>
</glyph>
<glyph name="i" format="2">
  <advance width="422"/>
  <unicode hex="0069"/>
  <anchor x="209" y="0" name="bottom"/>
  <anchor x="220" y="0" name="ogonek"/>
  <anchor x="209" y="690" name="top"/>
  <outline>
    <contour>
      <point x="198" y="0" type="line"/>
      <point x="220" y="0" type="line"/>
      <point x="220" y="525" type="line"/>
      <point x="198" y="525" type="line"/>
    </contour>
    <contour>
      <point x="209" y="663" type="curve" smooth="yes"/>
      <point x="228" y="663"/>
      <point x="237" y="675"/>
      <point x="237" y="692" type="curve" smooth="yes"/>
      <point x="237" y="709"/>
      <point x="226" y="721"/>
      <point x="209" y="721" type="curve" smooth="yes"/>
      <point x="190" y="721"/>
      <point x="181" y="708"/>
      <point x="181" y="692" type="curve" smooth="yes"/>
      <point x="181" y="675"/>
      <point x="190" y="663"/>
    </contour>
  </outline>
</glyph>
<glyph name="j" format="2">
  <advance width="484"/>
  <unicode hex="006A"/>
  <outline>
    <contour>
      <point x="148" y="-194" type="line"/>
      <point x="228" y="-194"/>
      <point x="274" y="-147"/>
      <point x="274" y="-60" type="curve" smooth="yes"/>
      <point x="274" y="525" type="line"/>
      <point x="252" y="525" type="line"/>
      <point x="252" y="-56" type="line" smooth="yes"/>
      <point x="252" y="-125"/>
      <point x="223" y="-173"/>
      <point x="140" y="-173" type="curve"/>
    </contour>
    <contour>
      <point x="261" y="663" type="curve" smooth="yes"/>
      <point x="280" y="663"/>
      <point x="289" y="675"/>
      <point x="289" y="692" type="curve" smooth="yes"/>
      <point x="289" y="709"/>
      <point x="278" y="721"/>
      <point x="261" y="721" type="curve" smooth="yes"/>
      <point x="242" y="721"/>
      <point x="233" y="708"/>
      <point x="233" y="692" type="curve" smooth="yes"/>
      <point x="233" y="675"/>
      <point x="242" y="663"/>
    </contour>
  </outline>
</glyph>
<glyph name="k" format="2">
  <advance width="739"/>
  <unicode hex="006B"/>
  <anchor x="385" y="0" name="bottom"/>
  <anchor x="385" y="740" name="top"/>
  <outline>
    <contour>
      <point x="232" y="179" type="line"/>
      <point x="581" y="525" type="line"/>
      <point x="549" y="525" type="line"/>
      <point x="232" y="211" type="line"/>
    </contour>
    <contour>
      <point x="218" y="0" type="line"/>
      <point x="240" y="0" type="line"/>
      <point x="240" y="740" type="line"/>
      <point x="218" y="740" type="line"/>
    </contour>
    <contour>
      <point x="584" y="0" type="line"/>
      <point x="615" y="0" type="line"/>
      <point x="348" y="307" type="line"/>
      <point x="331" y="291" type="line"/>
    </contour>
  </outline>
</glyph>
<glyph name="m" format="2">
  <advance width="1140"/>
  <unicode hex="006D"/>
  <anchor x="570" y="0" name="bottom"/>
  <anchor x="570" y="525" name="top"/>
  <outline>
    <contour>
      <point x="196" y="0" type="line"/>
      <point x="218" y="0" type="line"/>
      <point x="218" y="376" type="line" smooth="yes"/>
      <point x="218" y="417"/>
      <point x="296" y="508"/>
      <point x="405" y="508" type="curve" smooth="yes"/>
      <point x="506" y="508"/>
      <point x="563" y="455"/>
      <point x="563" y="328" type="curve" smooth="yes"/>
      <point x="563" y="0" type="line"/>
      <point x="585" y="0" type="line"/>
      <point x="585" y="364" type="line" smooth="yes"/>
      <point x="585" y="428"/>
      <point x="661" y="508"/>
      <point x="765" y="508" type="curve" smooth="yes"/>
      <point x="866" y="508"/>
      <point x="923" y="455"/>
      <point x="923" y="328" type="curve" smooth="yes"/>
      <point x="923" y="0" type="line"/>
      <point x="945" y="0" type="line"/>
      <point x="945" y="328" type="line" smooth="yes"/>
      <point x="945" y="469"/>
      <point x="880" y="530"/>
      <point x="767" y="530" type="curve" smooth="yes"/>
      <point x="684" y="530"/>
      <point x="607" y="487"/>
      <point x="572" y="406" type="curve" smooth="yes"/>
      <point x="566" y="389" type="line"/>
      <point x="578" y="395" type="line"/>
      <point x="557" y="495"/>
      <point x="492" y="530"/>
      <point x="407" y="530" type="curve" smooth="yes"/>
      <point x="324" y="530"/>
      <point x="253" y="492"/>
      <point x="204" y="396" type="curve"/>
      <point x="219" y="393" type="line"/>
      <point x="216" y="525" type="line"/>
      <point x="196" y="525" type="line"/>
    </contour>
  </outline>
</glyph>
<glyph name="n" format="2">
  <advance width="841"/>
  <unicode hex="006E"/>
  <anchor x="419" y="0" name="bottom"/>
  <anchor x="429" y="525" name="top"/>
  <outline>
    <contour>
      <point x="218" y="0" type="line"/>
      <point x="223" y="0"/>
      <point x="226" y="0"/>
      <point x="229" y="0" type="curve" smooth="yes"/>
      <point x="240" y="0" type="line"/>
      <point x="240" y="376" type="line" smooth="yes"/>
      <point x="240" y="417"/>
      <point x="321" y="508"/>
      <point x="434" y="508" type="curve" smooth="yes"/>
      <point x="539" y="508"/>
      <point x="599" y="455"/>
      <point x="599" y="328" type="curve" smooth="yes"/>
      <point x="599" y="0" type="line"/>
      <point x="621" y="0" type="line"/>
      <point x="621" y="328" type="line" smooth="yes"/>
      <point x="621" y="469"/>
      <point x="553" y="530"/>
      <point x="436" y="530" type="curve" smooth="yes"/>
      <point x="339" y="530"/>
      <point x="252" y="470"/>
      <point x="231" y="401" type="curve"/>
      <point x="240" y="404" type="line"/>
      <point x="238" y="525" type="line"/>
      <point x="218" y="525" type="line"/>
    </contour>
  </outline>
</glyph>
<glyph name="o" format="2">
  <advance width="795"/>
  <unicode hex="006F"/>
  <anchor x="398" y="0" name="bottom"/>
  <anchor x="398" y="263" name="center"/>
  <anchor x="548" y="0" name="ogonek"/>
  <anchor x="398" y="525" name="top"/>
  <anchor x="685" y="525" name="topright"/>
  <outline>
    <contour>
      <point x="398" y="-10" type="curve" smooth="yes"/>
      <point x="557" y="-10"/>
      <point x="665" y="104"/>
      <point x="665" y="263" type="curve" smooth="yes"/>
      <point x="665" y="419"/>
      <point x="557" y="530"/>
      <point x="398" y="530" type="curve" smooth="yes"/>
      <point x="241" y="530"/>
      <point x="130" y="419"/>
      <point x="130" y="263" type="curve" smooth="yes"/>
      <point x="130" y="104"/>
      <point x="241" y="-10"/>
    </contour>
    <contour>
      <point x="398" y="12" type="curve" smooth="yes"/>
      <point x="255" y="12"/>
      <point x="152" y="116"/>
      <point x="152" y="263" type="curve" smooth="yes"/>
      <point x="152" y="404"/>
      <point x="255" y="508"/>
      <point x="398" y="508" type="curve" smooth="yes"/>
      <point x="539" y="508"/>
      <point x="643" y="404"/>
      <point x="643" y="263" type="curve" smooth="yes"/>
      <point x="643" y="116"/>
      <point x="539" y="12"/>
    </contour>
  </outline>
</glyph>
<glyph name="q" format="2">
  <advance width="836"/>
  <unicode hex="0071"/>
  <anchor x="401" y="0" name="bottom"/>
  <anchor x="401" y="525" name="top"/>
  <outline>
    <contour>
      <point x="605" y="-230" type="line"/>
      <point x="627" y="-230" type="line"/>
      <point x="627" y="525" type="line"/>
      <point x="607" y="525" type="line"/>
      <point x="605" y="353" type="line"/>
      <point x="611" y="350" type="line"/>
      <point x="592" y="453"/>
      <point x="492" y="530"/>
      <point x="385" y="530" type="curve" smooth="yes"/>
      <point x="248" y="530"/>
      <point x="135" y="415"/>
      <point x="135" y="258" type="curve" smooth="yes"/>
      <point x="135" y="102"/>
      <point x="242" y="-10"/>
      <point x="389" y="-10" type="curve" smooth="yes"/>
      <point x="497" y="-10"/>
      <point x="587" y="67"/>
      <point x="614" y="175" type="curve"/>
      <point x="605" y="172" type="line"/>
    </contour>
    <contour>
      <point x="388" y="12" type="curve" smooth="yes"/>
      <point x="251" y="12"/>
      <point x="157" y="117"/>
      <point x="157" y="258" type="curve" smooth="yes"/>
      <point x="157" y="403"/>
      <point x="251" y="508"/>
      <point x="386" y="508" type="curve" smooth="yes"/>
      <point x="511" y="508"/>
      <point x="605" y="404"/>
      <point x="605" y="260" type="curve" smooth="yes"/>
      <point x="605" y="113"/>
      <point x="511" y="12"/>
    </contour>
  </outline>
</glyph>
<glyph name="s" format="2">
  <advance width="637"/>
  <unicode hex="0073"/>
  <anchor x="330" y="0" name="bottom"/>
  <anchor x="320" y="525" name="top"/>
  <outline>
    <contour>
      <point x="328" y="-10" type="curve" smooth="yes"/>
      <point x="439" y="-10"/>
      <point x="505" y="46"/>
      <point x="505" y="133" type="curve" smooth="yes"/>
      <point x="505" y="174"/>
      <point x="490" y="204"/>
      <point x="459" y="227" type="curve" smooth="yes"/>
      <point x="429" y="249"/>
      <point x="385" y="265"/>
      <point x="325" y="279" type="curve" smooth="yes"/>
      <point x="267" y="292"/>
      <point x="223" y="309"/>
      <point x="197" y="332" type="curve" smooth="yes"/>
      <point x="176" y="349"/>
      <point x="167" y="371"/>
      <point x="167" y="394" type="curve" smooth="yes"/>
      <point x="167" y="460"/>
      <point x="223" y="508"/>
      <point x="320" y="508" type="curve" smooth="yes"/>
      <point x="387" y="508"/>
      <point x="442" y="478"/>
      <point x="486" y="427" type="curve"/>
      <point x="502" y="445" type="line"/>
      <point x="455" y="500"/>
      <point x="391" y="530"/>
      <point x="320" y="530" type="curve" smooth="yes"/>
      <point x="213" y="530"/>
      <point x="145" y="476"/>
      <point x="145" y="393" type="curve" smooth="yes"/>
      <point x="145" y="361"/>
      <point x="158" y="335"/>
      <point x="185" y="313" type="curve" smooth="yes"/>
      <point x="214" y="289"/>
      <point x="261" y="270"/>
      <point x="321" y="256" type="curve" smooth="yes"/>
      <point x="374" y="244"/>
      <point x="414" y="230"/>
      <point x="441" y="210" type="curve" smooth="yes"/>
      <point x="469" y="191"/>
      <point x="483" y="166"/>
      <point x="483" y="133" type="curve" smooth="yes"/>
      <point x="483" y="70"/>
      <point x="438" y="12"/>
      <point x="330" y="12" type="curve" smooth="yes"/>
      <point x="245" y="12"/>
      <point x="179" y="47"/>
      <point x="142" y="96" type="curve"/>
      <point x="125" y="81" type="line"/>
      <point x="164" y="26"/>
      <point x="240" y="-10"/>
    </contour>
  </outline>
</glyph>
<glyph name="t" format="2">
  <advance width="575"/>
  <unicode hex="0074"/>
  <anchor x="272" y="0" name="bottom"/>
  <anchor x="272" y="263" name="center"/>
  <anchor x="272" y="612" name="top"/>
  <anchor x="319" y="740" name="topright"/>
  <outline>
    <contour>
      <point x="260" y="0" type="line"/>
      <point x="282" y="0" type="line"/>
      <point x="282" y="659" type="line"/>
      <point x="260" y="659" type="line"/>
    </contour>
    <contour>
      <point x="117" y="503" type="line"/>
      <point x="432" y="503" type="line"/>
      <point x="432" y="525" type="line"/>
      <point x="117" y="525" type="line"/>
    </contour>
  </outline>
</glyph>
<glyph name="u" format="2">
  <advance width="783"/>
  <unicode hex="0075"/>
  <anchor x="396" y="0" name="bottom"/>
  <anchor x="593" y="0" name="ogonek"/>
  <anchor x="396" y="525" name="top"/>
  <anchor x="645" y="525" name="topright"/>
  <outline>
    <contour>
      <point x="390" y="-10" type="curve" smooth="yes"/>
      <point x="479" y="-10"/>
      <point x="557" y="52"/>
      <point x="580" y="123" type="curve"/>
      <point x="571" y="121" type="line"/>
      <point x="573" y="0" type="line"/>
      <point x="593" y="0" type="line"/>
      <point x="593" y="525" type="line"/>
      <point x="571" y="525" type="line"/>
      <point x="571" y="149" type="line" smooth="yes"/>
      <point x="571" y="106"/>
      <point x="489" y="12"/>
      <point x="392" y="12" type="curve" smooth="yes"/>
      <point x="283" y="12"/>
      <point x="222" y="67"/>
      <point x="222" y="197" type="curve" smooth="yes"/>
      <point x="222" y="525" type="line"/>
      <point x="200" y="525" type="line"/>
      <point x="200" y="197" type="line" smooth="yes"/>
      <point x="200" y="52"/>
      <point x="269" y="-10"/>
    </contour>
  </outline>
</glyph>
<glyph name="v" format="2">
  <advance width="593"/>
  <unicode hex="0076"/>
  <anchor x="297" y="0" name="bottom"/>
  <anchor x="297" y="525" name="top"/>
  <outline>
    <contour>
      <point x="289" y="0" type="line"/>
      <point x="304" y="0" type="line"/>
      <point x="515" y="525" type="line"/>
      <point x="490" y="525" type="line"/>
      <point x="290" y="24" type="line"/>
      <point x="303" y="24" type="line"/>
      <point x="103" y="525" type="line"/>
      <point x="78" y="525" type="line"/>
    </contour>
  </outline>
</glyph>
<glyph name="w" format="2">
  <advance width="869"/>
  <unicode hex="0077"/>
  <anchor x="435" y="0" name="bottom"/>
  <anchor x="435" y="525" name="top"/>
  <outline>
    <contour>
      <point x="263" y="0" type="line"/>
      <point x="277" y="0" type="line"/>
      <point x="442" y="422" type="line"/>
      <point x="427" y="422" type="line"/>
      <point x="592" y="0" type="line"/>
      <point x="606" y="0" type="line"/>
      <point x="791" y="525" type="line"/>
      <point x="767" y="525" type="line"/>
      <point x="591" y="24" type="line"/>
      <point x="606" y="24" type="line"/>
      <point x="442" y="444" type="line"/>
      <point x="427" y="444" type="line"/>
      <point x="263" y="24" type="line"/>
      <point x="278" y="24" type="line"/>
      <point x="102" y="525" type="line"/>
      <point x="78" y="525" type="line"/>
    </contour>
  </outline>
</glyph>
<glyph name="z" format="2">
  <advance width="534"/>
  <unicode hex="007A"/>
  <anchor x="265" y="0" name="bottom"/>
  <anchor x="265" y="263" name="center"/>
  <anchor x="265" y="525" name="top"/>
  <outline>
    <contour>
      <point x="85" y="0" type="line"/>
      <point x="444" y="0" type="line"/>
      <point x="444" y="22" type="line"/>
      <point x="97" y="22" type="line"/>
      <point x="101" y="10" type="line"/>
      <point x="423" y="497" type="line"/>
      <point x="423" y="525" type="line"/>
      <point x="85" y="525" type="line"/>
      <point x="85" y="503" type="line"/>
      <point x="409" y="503" type="line"/>
      <point x="411" y="521" type="line"/>
      <point x="85" y="26" type="line"/>
    </contour>
  </outline>
</glyph>
<glyph name="braceleft" format="2">
  <advance width="681"/>
  <unicode hex="007B"/>
  <outline>
    <contour>
      <point x="500" y="-186" type="curve"/>
      <point x="506" y="-167" type="line"/>
      <point x="414" y="-143"/>
      <point x="380" y="-97"/>
      <point x="380" y="7" type="curve" smooth="yes"/>
      <point x="382" y="102" type="line" smooth="yes"/>
      <point x="382" y="178"/>
      <point x="353" y="229"/>
      <point x="292" y="252" type="curve"/>
      <point x="292" y="249" type="line"/>
      <point x="352" y="268"/>
      <point x="382" y="321"/>
      <point x="382" y="398" type="curve" smooth="yes"/>
      <point x="380" y="493" type="line" smooth="yes"/>
      <point x="380" y="597"/>
      <point x="414" y="643"/>
      <point x="506" y="667" type="curve"/>
      <point x="500" y="686" type="line"/>
      <point x="412" y="666"/>
      <point x="358" y="610"/>
      <point x="358" y="507" type="curve" smooth="yes"/>
      <point x="360" y="412" type="line" smooth="yes"/>
      <point x="360" y="317"/>
      <point x="319" y="264"/>
      <point x="240" y="263" type="curve" smooth="yes"/>
      <point x="220" y="263" type="line"/>
      <point x="220" y="237" type="line"/>
      <point x="240" y="237" type="line" smooth="yes"/>
      <point x="317" y="236"/>
      <point x="360" y="181"/>
      <point x="360" y="88" type="curve" smooth="yes"/>
      <point x="358" y="-7" type="line" smooth="yes"/>
      <point x="358" y="-110"/>
      <point x="412" y="-166"/>
    </contour>
  </outline>
</glyph>
<glyph name="braceright" format="2">
  <advance width="681"/>
  <unicode hex="007D"/>
  <outline>
    <contour>
      <point x="181" y="-186" type="line"/>
      <point x="269" y="-166"/>
      <point x="323" y="-110"/>
      <point x="323" y="-7" type="curve" smooth="yes"/>
      <point x="321" y="88" type="line" smooth="yes"/>
      <point x="321" y="183"/>
      <point x="362" y="236"/>
      <point x="441" y="237" type="curve" smooth="yes"/>
      <point x="461" y="237" type="line"/>
      <point x="461" y="263" type="line"/>
      <point x="441" y="263" type="line" smooth="yes"/>
      <point x="364" y="264"/>
      <point x="321" y="319"/>
      <point x="321" y="412" type="curve" smooth="yes"/>
      <point x="323" y="507" type="line" smooth="yes"/>
      <point x="323" y="610"/>
      <point x="269" y="666"/>
      <point x="181" y="686" type="curve"/>
      <point x="175" y="667" type="line"/>
      <point x="267" y="643"/>
      <point x="301" y="597"/>
      <point x="301" y="493" type="curve" smooth="yes"/>
      <point x="299" y="398" type="line" smooth="yes"/>
      <point x="299" y="322"/>
      <point x="328" y="271"/>
      <point x="389" y="248" type="curve"/>
      <point x="389" y="251" type="line"/>
      <point x="329" y="232"/>
      <point x="299" y="179"/>
      <point x="299" y="102" type="curve" smooth="yes"/>
      <point x="301" y="7" type="line" smooth="yes"/>
      <point x="301" y="-97"/>
      <point x="267" y="-143"/>
      <point x="175" y="-167" type="curve"/>
    </contour>
  </outline>
</glyph>
<glyph name="asciitilde" format="2">
  <advance width="660"/>
  <unicode hex="007E"/>
  <outline>
    <contour>
      <point x="435" y="251" type="curve" smooth="yes"/>
      <point x="474" y="251"/>
      <point x="508" y="281"/>
      <point x="508" y="333" type="curve"/>
      <point x="486" y="333" type="line"/>
      <point x="486" y="289"/>
      <point x="461" y="273"/>
      <point x="434" y="273" type="curve" smooth="yes"/>
      <point x="403" y="273"/>
      <point x="368" y="291"/>
      <point x="349" y="299" type="curve" smooth="yes"/>
      <point x="312" y="316"/>
      <point x="265" y="339"/>
      <point x="225" y="339" type="curve" smooth="yes"/>
      <point x="186" y="339"/>
      <point x="152" y="308"/>
      <point x="152" y="257" type="curve"/>
      <point x="174" y="257" type="line"/>
      <point x="174" y="298"/>
      <point x="198" y="317"/>
      <point x="226" y="317" type="curve" smooth="yes"/>
      <point x="258" y="317"/>
      <point x="294" y="300"/>
      <point x="319" y="288" type="curve" smooth="yes"/>
      <point x="343" y="276"/>
      <point x="392" y="251"/>
    </contour>
  </outline>
</glyph>
<glyph name="cent" format="2">
  <advance width="726"/>
  <unicode hex="00A2"/>
  <outline>
    <contour>
      <point x="403" y="78" type="curve" smooth="yes"/>
      <point x="484" y="78"/>
      <point x="551" y="113"/>
      <point x="599" y="166" type="curve"/>
      <point x="583" y="181" type="line"/>
      <point x="539" y="130"/>
      <point x="476" y="100"/>
      <point x="403" y="100" type="curve" smooth="yes"/>
      <point x="260" y="100"/>
      <point x="158" y="204"/>
      <point x="157" y="351" type="curve" smooth="yes"/>
      <point x="158" y="494"/>
      <point x="260" y="595"/>
      <point x="403" y="595" type="curve" smooth="yes"/>
      <point x="478" y="595"/>
      <point x="541" y="565"/>
      <point x="585" y="514" type="curve"/>
      <point x="601" y="531" type="line"/>
      <point x="554" y="584"/>
      <point x="486" y="617"/>
      <point x="403" y="617" type="curve" smooth="yes"/>
      <point x="246" y="617"/>
      <point x="135" y="507"/>
      <point x="135" y="351" type="curve" smooth="yes"/>
      <point x="135" y="192"/>
      <point x="246" y="78"/>
    </contour>
    <contour>
      <point x="374" y="0" type="line"/>
      <point x="396" y="0" type="line"/>
      <point x="396" y="85" type="line"/>
      <point x="396" y="95" type="line"/>
      <point x="396" y="600" type="line"/>
      <point x="396" y="612" type="line"/>
      <point x="396" y="700" type="line"/>
      <point x="374" y="700" type="line"/>
      <point x="374" y="612" type="line"/>
      <point x="374" y="601" type="line"/>
      <point x="374" y="95" type="line"/>
      <point x="374" y="85" type="line"/>
    </contour>
  </outline>
</glyph>
<glyph name="sterling" format="2">
  <advance width="800"/>
  <unicode hex="00A3"/>
  <outline>
    <contour>
      <point x="258" y="47" type="line"/>
      <point x="307" y="100"/>
      <point x="320" y="147"/>
      <point x="320" y="202" type="curve" smooth="yes"/>
      <point x="320" y="256"/>
      <point x="309" y="297"/>
      <point x="290" y="353" type="curve" smooth="yes"/>
      <point x="275" y="398"/>
      <point x="257" y="454"/>
      <point x="257" y="501" type="curve" smooth="yes"/>
      <point x="257" y="601"/>
      <point x="329" y="673"/>
      <point x="430" y="673" type="curve" smooth="yes"/>
      <point x="489" y="673"/>
      <point x="532" y="658"/>
      <point x="581" y="597" type="curve"/>
      <point x="599" y="611" type="line"/>
      <point x="560" y="666"/>
      <point x="510" y="695"/>
      <point x="430" y="695" type="curve" smooth="yes"/>
      <point x="310" y="695"/>
      <point x="234" y="617"/>
      <point x="234" y="502" type="curve" smooth="yes"/>
      <point x="234" y="466"/>
      <point x="237" y="435"/>
      <point x="263" y="352" type="curve" smooth="yes"/>
      <point x="290" y="271"/>
      <point x="297" y="238"/>
      <point x="297" y="201" type="curve" smooth="yes"/>
      <point x="297" y="137"/>
      <point x="270" y="79"/>
      <point x="238" y="62" type="curve"/>
    </contour>
    <contour>
      <point x="537" y="-5" type="curve" smooth="yes"/>
      <point x="578" y="-5"/>
      <point x="616" y="10"/>
      <point x="652" y="31" type="curve"/>
      <point x="638" y="49" type="line"/>
      <point x="603" y="28"/>
      <point x="570" y="17"/>
      <point x="537" y="17" type="curve" smooth="yes"/>
      <point x="499" y="17"/>
      <point x="462" y="27"/>
      <point x="424" y="39" type="curve" smooth="yes"/>
      <point x="353" y="61"/>
      <point x="321" y="69"/>
      <point x="289" y="69" type="curve" smooth="yes"/>
      <point x="236" y="69"/>
      <point x="193" y="51"/>
      <point x="152" y="32" type="curve"/>
      <point x="163" y="13" type="line"/>
      <point x="207" y="33"/>
      <point x="252" y="47"/>
      <point x="289" y="47" type="curve" smooth="yes"/>
      <point x="299" y="47"/>
      <point x="368" y="31"/>
      <point x="403" y="21" type="curve" smooth="yes"/>
      <point x="449" y="7"/>
      <point x="494" y="-5"/>
    </contour>
    <contour>
      <point x="149" y="353" type="line"/>
      <point x="527" y="353" type="line"/>
      <point x="527" y="375" type="line"/>
      <point x="149" y="375" type="line"/>
    </contour>
  </outline>
</glyph>
<glyph name="currency" format="2">
  <advance width="843"/>
  <unicode hex="00A4"/>
  <outline>
    <contour>
      <point x="419" y="122" type="curve" smooth="yes"/>
      <point x="518" y="122"/>
      <point x="597" y="201"/>
      <point x="597" y="302" type="curve" smooth="yes"/>
      <point x="597" y="402"/>
      <point x="516" y="482"/>
      <point x="419" y="482" type="curve" smooth="yes"/>
      <point x="320" y="482"/>
      <point x="241" y="403"/>
      <point x="241" y="302" type="curve" smooth="yes"/>
      <point x="241" y="201"/>
      <point x="320" y="122"/>
    </contour>
    <contour>
      <point x="235" y="110" type="line"/>
      <point x="307" y="178" type="line"/>
      <point x="291" y="193" type="line"/>
      <point x="220" y="127" type="line"/>
    </contour>
    <contour>
      <point x="291" y="413" type="line"/>
      <point x="307" y="428" type="line"/>
      <point x="235" y="496" type="line"/>
      <point x="220" y="479" type="line"/>
    </contour>
    <contour>
      <point x="419" y="144" type="curve" smooth="yes"/>
      <point x="328" y="144"/>
      <point x="263" y="211"/>
      <point x="263" y="302" type="curve" smooth="yes"/>
      <point x="263" y="393"/>
      <point x="328" y="460"/>
      <point x="419" y="460" type="curve" smooth="yes"/>
      <point x="511" y="460"/>
      <point x="575" y="393"/>
      <point x="575" y="302" type="curve" smooth="yes"/>
      <point x="575" y="211"/>
      <point x="511" y="144"/>
    </contour>
    <contour>
      <point x="603" y="110" type="line"/>
      <point x="618" y="127" type="line"/>
      <point x="547" y="193" type="line"/>
      <point x="531" y="178" type="line"/>
    </contour>
    <contour>
      <point x="547" y="413" type="line"/>
      <point x="618" y="479" type="line"/>
      <point x="603" y="496" type="line"/>
      <point x="531" y="428" type="line"/>
    </contour>
  </outline>
</glyph>
<glyph name="yen" format="2">
  <advance width="732"/>
  <unicode hex="00A5"/>
  <outline>
    <contour>
      <point x="359" y="0" type="line"/>
      <point x="381" y="0" type="line"/>
      <point x="381" y="339" type="line"/>
      <point x="372" y="300" type="line"/>
      <point x="642" y="700" type="line"/>
      <point x="615" y="700" type="line"/>
      <point x="364" y="327" type="line"/>
      <point x="375" y="327" type="line"/>
      <point x="117" y="700" type="line"/>
      <point x="90" y="700" type="line"/>
      <point x="367" y="300" type="line"/>
      <point x="359" y="339" type="line"/>
    </contour>
    <contour>
      <point x="201" y="149" type="line"/>
      <point x="539" y="149" type="line"/>
      <point x="539" y="171" type="line"/>
      <point x="201" y="171" type="line"/>
    </contour>
    <contour>
      <point x="201" y="299" type="line"/>
      <point x="539" y="299" type="line"/>
      <point x="539" y="321" type="line"/>
      <point x="201" y="321" type="line"/>
    </contour>
  </outline>
</glyph>
<glyph name="ordfeminine" format="2">
  <advance width="500"/>
  <unicode hex="00AA"/>
  <outline>
    <contour>
      <point x="241" y="402" type="curve" smooth="yes"/>
      <point x="298" y="402"/>
      <point x="348" y="434"/>
      <point x="364" y="484" type="curve"/>
      <point x="355" y="478" type="line"/>
      <point x="355" y="403" type="line"/>
      <point x="375" y="403" type="line"/>
      <point x="375" y="716" type="line"/>
      <point x="356" y="716" type="line"/>
      <point x="355" y="644" type="line"/>
      <point x="364" y="641" type="line"/>
      <point x="348" y="690"/>
      <point x="298" y="721"/>
      <point x="241" y="721" type="curve" smooth="yes"/>
      <point x="158" y="721"/>
      <point x="95" y="651"/>
      <point x="95" y="561" type="curve" smooth="yes"/>
      <point x="95" y="471"/>
      <point x="158" y="402"/>
    </contour>
    <contour>
      <point x="240" y="422" type="curve" smooth="yes"/>
      <point x="168" y="422"/>
      <point x="115" y="483"/>
      <point x="115" y="561" type="curve" smooth="yes"/>
      <point x="115" y="641"/>
      <point x="168" y="701"/>
      <point x="240" y="701" type="curve" smooth="yes"/>
      <point x="306" y="701"/>
      <point x="357" y="665"/>
      <point x="357" y="561" type="curve" smooth="yes"/>
      <point x="357" y="458"/>
      <point x="307" y="422"/>
    </contour>
  </outline>
</glyph>
<glyph name="logicalnot" format="2">
  <advance width="810"/>
  <unicode hex="00AC"/>
  <outline>
    <contour>
      <point x="653" y="117" type="line"/>
      <point x="675" y="117" type="line"/>
      <point x="675" y="389" type="line"/>
      <point x="135" y="389" type="line"/>
      <point x="135" y="367" type="line"/>
      <point x="664" y="367" type="line"/>
      <point x="653" y="379" type="line"/>
    </contour>
  </outline>
</glyph>
<glyph name="registered" format="2">
  <advance width="707"/>
  <unicode hex="00AE"/>
  <outline>
    <contour>
      <point x="345" y="257" type="curve" smooth="yes"/>
      <point x="473" y="257"/>
      <point x="576" y="358"/>
      <point x="576" y="483" type="curve" smooth="yes"/>
      <point x="576" y="608"/>
      <point x="473" y="709"/>
      <point x="345" y="709" type="curve" smooth="yes"/>
      <point x="220" y="709"/>
      <point x="114" y="608"/>
      <point x="114" y="483" type="curve" smooth="yes"/>
      <point x="114" y="358"/>
      <point x="218" y="257"/>
    </contour>
    <contour>
      <point x="345" y="277" type="curve" smooth="yes"/>
      <point x="230" y="277"/>
      <point x="134" y="368"/>
      <point x="134" y="483" type="curve" smooth="yes"/>
      <point x="134" y="599"/>
      <point x="230" y="689"/>
      <point x="345" y="689" type="curve" smooth="yes"/>
      <point x="462" y="689"/>
      <point x="556" y="599"/>
      <point x="556" y="483" type="curve" smooth="yes"/>
      <point x="556" y="368"/>
      <point x="462" y="277"/>
    </contour>
    <contour>
      <point x="400" y="367" type="line"/>
      <point x="423" y="367" type="line"/>
      <point x="378" y="479" type="line"/>
      <point x="359" y="471" type="line"/>
    </contour>
    <contour>
      <point x="277" y="367" type="line"/>
      <point x="297" y="367" type="line"/>
      <point x="297" y="469" type="line"/>
      <point x="290" y="464" type="line"/>
      <point x="354" y="464" type="line" smooth="yes"/>
      <point x="398" y="464"/>
      <point x="431" y="492"/>
      <point x="431" y="532" type="curve" smooth="yes"/>
      <point x="431" y="576"/>
      <point x="401" y="606"/>
      <point x="354" y="606" type="curve" smooth="yes"/>
      <point x="277" y="606" type="line"/>
    </contour>
    <contour>
      <point x="297" y="478" type="line"/>
      <point x="297" y="594" type="line"/>
      <point x="286" y="586" type="line"/>
      <point x="351" y="586" type="line" smooth="yes"/>
      <point x="391" y="586"/>
      <point x="410" y="566"/>
      <point x="410" y="533" type="curve" smooth="yes"/>
      <point x="410" y="505"/>
      <point x="385" y="484"/>
      <point x="349" y="484" type="curve" smooth="yes"/>
      <point x="290" y="484" type="line"/>
    </contour>
  </outline>
</glyph>
<glyph name="degree" format="2">
  <advance width="534"/>
  <unicode hex="00B0"/>
  <outline>
    <contour>
      <point x="267" y="399" type="curve" smooth="yes"/>
      <point x="355" y="399"/>
      <point x="423" y="467"/>
      <point x="423" y="554" type="curve" smooth="yes"/>
      <point x="423" y="641"/>
      <point x="356" y="709"/>
      <point x="267" y="709" type="curve" smooth="yes"/>
      <point x="178" y="709"/>
      <point x="111" y="641"/>
      <point x="111" y="553" type="curve" smooth="yes"/>
      <point x="111" y="468"/>
      <point x="179" y="399"/>
    </contour>
    <contour>
      <point x="267" y="421" type="curve" smooth="yes"/>
      <point x="194" y="421"/>
      <point x="133" y="481"/>
      <point x="133" y="553" type="curve" smooth="yes"/>
      <point x="133" y="626"/>
      <point x="194" y="687"/>
      <point x="267" y="687" type="curve" smooth="yes"/>
      <point x="339" y="687"/>
      <point x="401" y="626"/>
      <point x="401" y="554" type="curve" smooth="yes"/>
      <point x="401" y="482"/>
      <point x="340" y="421"/>
    </contour>
  </outline>
</glyph>
<glyph name="micro" format="2">
  <advance width="739"/>
  <unicode hex="00B5"/>
  <outline>
    <contour>
      <point x="163" y="-157" type="line"/>
      <point x="185" y="-157" type="line"/>
      <point x="185" y="103" type="line"/>
      <point x="168" y="149" type="line"/>
      <point x="183" y="25"/>
      <point x="258" y="-10"/>
      <point x="353" y="-10" type="curve" smooth="yes"/>
      <point x="436" y="-10"/>
      <point x="513" y="29"/>
      <point x="553" y="140" type="curve"/>
      <point x="533" y="140" type="line"/>
      <point x="539" y="0" type="line"/>
      <point x="559" y="0" type="line"/>
      <point x="559" y="525" type="line"/>
      <point x="537" y="525" type="line"/>
      <point x="537" y="192" type="line" smooth="yes"/>
      <point x="537" y="99"/>
      <point x="458" y="12"/>
      <point x="353" y="12" type="curve" smooth="yes"/>
      <point x="238" y="12"/>
      <point x="185" y="74"/>
      <point x="185" y="174" type="curve" smooth="yes"/>
      <point x="185" y="525" type="line"/>
      <point x="163" y="525" type="line"/>
    </contour>
  </outline>
</glyph>
<glyph name="paragraph" format="2">
  <advance width="734"/>
  <unicode hex="00B6"/>
  <outline>
    <contour>
      <point x="377" y="0" type="line"/>
      <point x="399" y="0" type="line"/>
      <point x="399" y="690" type="line"/>
      <point x="388" y="678" type="line"/>
      <point x="528" y="678" type="line"/>
      <point x="517" y="690" type="line"/>
      <point x="517" y="0" type="line"/>
      <point x="539" y="0" type="line"/>
      <point x="539" y="700" type="line"/>
      <point x="360" y="700" type="line" smooth="yes"/>
      <point x="224" y="700"/>
      <point x="135" y="615"/>
      <point x="135" y="486" type="curve" smooth="yes"/>
      <point x="135" y="366"/>
      <point x="215" y="279"/>
      <point x="323" y="279" type="curve" smooth="yes"/>
      <point x="388" y="279" type="line"/>
      <point x="377" y="291" type="line"/>
    </contour>
  </outline>
</glyph>
<glyph name="Eth" format="2">
  <advance width="901"/>
  <unicode hex="00D0"/>
  <anchor x="453" y="0" name="bottom"/>
  <anchor x="242" y="350" name="center"/>
  <anchor x="453" y="700" name="top"/>
  <outline>
    <contour>
      <point x="108" y="339" type="line"/>
      <point x="376" y="339" type="line"/>
      <point x="376" y="360" type="line"/>
      <point x="108" y="360" type="line"/>
    </contour>
    <component base="D"/>
  </outline>
</glyph>
<glyph name="multiply" format="2">
  <advance width="624"/>
  <unicode hex="00D7"/>
  <outline>
    <contour>
      <point x="484" y="108" type="line"/>
      <point x="501" y="123" type="line"/>
      <point x="163" y="460" type="line"/>
      <point x="146" y="445" type="line"/>
    </contour>
    <contour>
      <point x="154" y="108" type="line"/>
      <point x="492" y="445" type="line"/>
      <point x="475" y="460" type="line"/>
      <point x="137" y="123" type="line"/>
    </contour>
  </outline>
</glyph>
<glyph name="Oslash" format="2">
  <advance width="958"/>
  <unicode hex="00D8"/>
  <anchor x="479" y="0" name="bottom"/>
  <anchor x="479" y="700" name="top"/>
  <anchor x="479" y="350" name="center"/>
  <anchor x="566" y="0" name="ogonek"/>
  <anchor x="100" y="700" name="topleft"/>
  <anchor x="858" y="700" name="topright"/>
  <outline>
    <contour>
      <point x="194" y="-18" type="line"/>
      <point x="783" y="704" type="line"/>
      <point x="764" y="718" type="line"/>
      <point x="175" y="-4" type="line"/>
    </contour>
    <component base="O"/>
  </outline>
</glyph>
<glyph name="Thorn" format="2">
  <advance width="740"/>
  <unicode hex="00DE"/>
  <anchor x="367" y="0" name="bottom"/>
  <anchor x="367" y="700" name="top"/>
  <outline>
    <contour>
      <point x="194" y="0" type="line"/>
      <point x="216" y="0" type="line"/>
      <point x="216" y="171" type="line"/>
      <point x="412" y="171" type="line" smooth="yes"/>
      <point x="519" y="171"/>
      <point x="595" y="254"/>
      <point x="595" y="358" type="curve" smooth="yes"/>
      <point x="595" y="470"/>
      <point x="520" y="543"/>
      <point x="413" y="543" type="curve" smooth="yes"/>
      <point x="216" y="543" type="line"/>
      <point x="216" y="700" type="line"/>
      <point x="194" y="700" type="line"/>
    </contour>
    <contour>
      <point x="216" y="193" type="line"/>
      <point x="216" y="521" type="line"/>
      <point x="411" y="521" type="line" smooth="yes"/>
      <point x="518" y="521"/>
      <point x="573" y="454"/>
      <point x="573" y="358" type="curve" smooth="yes"/>
      <point x="573" y="273"/>
      <point x="514" y="193"/>
      <point x="411" y="193" type="curve" smooth="yes"/>
    </contour>
  </outline>
</glyph>
<glyph name="germandbls" format="2">
  <advance width="784"/>
  <unicode hex="00DF"/>
  <anchor x="403" y="0" name="bottom"/>
  <anchor x="403" y="525" name="top"/>
  <outline>
    <contour>
      <point x="454" y="-10" type="curve" smooth="yes"/>
      <point x="585" y="-9"/>
      <point x="652" y="57"/>
      <point x="652" y="186" type="curve" smooth="yes"/>
      <point x="652" y="282"/>
      <point x="593" y="373"/>
      <point x="408" y="432" type="curve"/>
      <point x="408" y="420" type="line"/>
      <point x="501" y="420"/>
      <point x="579" y="485"/>
      <point x="579" y="577" type="curve" smooth="yes"/>
      <point x="579" y="661"/>
      <point x="517" y="728"/>
      <point x="406" y="728" type="curve" smooth="yes"/>
      <point x="289" y="728"/>
      <point x="216" y="650"/>
      <point x="216" y="494" type="curve" smooth="yes"/>
      <point x="216" y="0" type="line"/>
      <point x="238" y="0" type="line"/>
      <point x="238" y="493" type="line" smooth="yes"/>
      <point x="238" y="637"/>
      <point x="300" y="706"/>
      <point x="411" y="706" type="curve" smooth="yes"/>
      <point x="499" y="706"/>
      <point x="556" y="649"/>
      <point x="556" y="577" type="curve" smooth="yes"/>
      <point x="556" y="500"/>
      <point x="495" y="442"/>
      <point x="400" y="437" type="curve"/>
      <point x="400" y="414" type="line"/>
      <point x="549" y="370"/>
      <point x="629" y="289"/>
      <point x="629" y="188" type="curve" smooth="yes"/>
      <point x="629" y="59"/>
      <point x="561" y="12"/>
      <point x="454" y="12" type="curve" smooth="yes"/>
      <point x="391" y="12"/>
      <point x="343" y="33"/>
      <point x="304" y="100" type="curve"/>
      <point x="284" y="88" type="line"/>
      <point x="321" y="23"/>
      <point x="373" y="-9"/>
    </contour>
    <contour>
      <point x="130" y="416" type="line"/>
      <point x="228" y="416" type="line"/>
      <point x="228" y="438" type="line"/>
      <point x="130" y="438" type="line"/>
    </contour>
  </outline>
</glyph>
<glyph name="ae" format="2">
  <advance width="1134"/>
  <unicode hex="00E6"/>
  <anchor x="556" y="0" name="bottom"/>
  <anchor x="556" y="525" name="top"/>
  <outline>
    <contour>
      <point x="300" y="-10" type="curve" smooth="yes"/>
      <point x="412" y="-10"/>
      <point x="506" y="53"/>
      <point x="554" y="146" type="curve"/>
      <point x="541" y="165" type="line"/>
      <point x="496" y="73"/>
      <point x="405" y="12"/>
      <point x="301" y="12" type="curve" smooth="yes"/>
      <point x="216" y="12"/>
      <point x="144" y="68"/>
      <point x="144" y="149" type="curve" smooth="yes"/>
      <point x="144" y="224"/>
      <point x="209" y="265"/>
      <point x="322" y="265" type="curve" smooth="yes"/>
      <point x="992" y="265" type="line"/>
      <point x="994" y="291" type="line"/>
      <point x="994" y="438"/>
      <point x="901" y="529"/>
      <point x="769" y="529" type="curve" smooth="yes"/>
      <point x="625" y="529"/>
      <point x="524" y="410"/>
      <point x="524" y="263" type="curve" smooth="yes"/>
      <point x="524" y="104"/>
      <point x="629" y="-10"/>
      <point x="781" y="-10" type="curve" smooth="yes"/>
      <point x="857" y="-10"/>
      <point x="919" y="20"/>
      <point x="968" y="65" type="curve"/>
      <point x="956" y="83" type="line"/>
      <point x="909" y="39"/>
      <point x="850" y="12"/>
      <point x="781" y="12" type="curve" smooth="yes"/>
      <point x="644" y="12"/>
      <point x="547" y="116"/>
      <point x="546" y="263" type="curve" smooth="yes"/>
      <point x="547" y="406"/>
      <point x="636" y="507"/>
      <point x="772" y="507" type="curve" smooth="yes"/>
      <point x="883" y="507"/>
      <point x="972" y="422"/>
      <point x="972" y="295" type="curve" smooth="yes"/>
      <point x="972" y="272" type="line"/>
      <point x="982" y="287" type="line"/>
      <point x="328" y="287" type="line" smooth="yes"/>
      <point x="192" y="287"/>
      <point x="122" y="237"/>
      <point x="122" y="149" type="curve" smooth="yes"/>
      <point x="122" y="53"/>
      <point x="199" y="-10"/>
    </contour>
    <contour>
      <point x="524" y="276" type="line"/>
      <point x="546" y="276" type="line"/>
      <point x="546" y="364" type="line" smooth="yes"/>
      <point x="546" y="469"/>
      <point x="474" y="530"/>
      <point x="354" y="530" type="curve" smooth="yes"/>
      <point x="270" y="530"/>
      <point x="200" y="495"/>
      <point x="145" y="428" type="curve"/>
      <point x="161" y="412" type="line"/>
      <point x="209" y="473"/>
      <point x="277" y="508"/>
      <point x="353" y="508" type="curve" smooth="yes"/>
      <point x="462" y="508"/>
      <point x="524" y="452"/>
      <point x="524" y="367" type="curve" smooth="yes"/>
    </contour>
  </outline>
</glyph>
<glyph name="divide" format="2">
  <advance width="728"/>
  <unicode hex="00F7"/>
  <outline>
    <contour>
      <point x="126" y="286" type="line"/>
      <point x="600" y="286" type="line"/>
      <point x="600" y="308" type="line"/>
      <point x="126" y="308" type="line"/>
    </contour>
    <contour>
      <point x="363" y="119" type="curve" smooth="yes"/>
      <point x="380" y="119"/>
      <point x="391" y="133"/>
      <point x="391" y="148" type="curve" smooth="yes"/>
      <point x="391" y="161"/>
      <point x="380" y="177"/>
      <point x="363" y="177" type="curve" smooth="yes"/>
      <point x="346" y="177"/>
      <point x="335" y="161"/>
      <point x="335" y="148" type="curve" smooth="yes"/>
      <point x="335" y="132"/>
      <point x="346" y="119"/>
    </contour>
    <contour>
      <point x="363" y="417" type="curve" smooth="yes"/>
      <point x="380" y="417"/>
      <point x="391" y="431"/>
      <point x="391" y="446" type="curve" smooth="yes"/>
      <point x="391" y="459"/>
      <point x="380" y="475"/>
      <point x="363" y="475" type="curve" smooth="yes"/>
      <point x="346" y="475"/>
      <point x="335" y="459"/>
      <point x="335" y="446" type="curve" smooth="yes"/>
      <point x="335" y="430"/>
      <point x="346" y="417"/>
    </contour>
  </outline>
</glyph>
<glyph name="oslash" format="2">
  <advance width="795"/>
  <unicode hex="00F8"/>
  <anchor x="398" y="525" name="top"/>
  <anchor x="398" y="0" name="bottom"/>
  <anchor x="398" y="263" name="center"/>
  <anchor x="548" y="0" name="ogonek"/>
  <anchor x="685" y="525" name="topright"/>
  <outline>
    <contour>
      <point x="175" y="-19" type="line"/>
      <point x="637" y="523" type="line"/>
      <point x="620" y="538" type="line"/>
      <point x="159" y="-5" type="line"/>
    </contour>
    <component base="o"/>
  </outline>
</glyph>
<glyph name="thorn" format="2">
  <advance width="850"/>
  <unicode hex="00FE"/>
  <anchor x="454" y="0" name="bottom"/>
  <anchor x="454" y="525" name="top"/>
  <outline>
    <contour>
      <point x="218" y="-230" type="line"/>
      <point x="240" y="-230" type="line"/>
      <point x="240" y="164" type="line"/>
      <point x="232" y="164" type="line"/>
      <point x="263" y="60"/>
      <point x="352" y="-10"/>
      <point x="468" y="-10" type="curve" smooth="yes"/>
      <point x="612" y="-10"/>
      <point x="720" y="103"/>
      <point x="720" y="259" type="curve" smooth="yes"/>
      <point x="720" y="416"/>
      <point x="606" y="530"/>
      <point x="469" y="530" type="curve" smooth="yes"/>
      <point x="353" y="530"/>
      <point x="264" y="457"/>
      <point x="232" y="353" type="curve"/>
      <point x="240" y="352" type="line"/>
      <point x="240" y="740" type="line"/>
      <point x="218" y="740" type="line"/>
    </contour>
    <contour>
      <point x="464" y="12" type="curve" smooth="yes"/>
      <point x="335" y="12"/>
      <point x="237" y="113"/>
      <point x="237" y="260" type="curve" smooth="yes"/>
      <point x="237" y="404"/>
      <point x="333" y="508"/>
      <point x="464" y="508" type="curve" smooth="yes"/>
      <point x="599" y="508"/>
      <point x="698" y="403"/>
      <point x="698" y="259" type="curve" smooth="yes"/>
      <point x="698" y="116"/>
      <point x="601" y="12"/>
    </contour>
  </outline>
</glyph>
<glyph name="hbar" format="2">
  <advance width="841"/>
  <unicode hex="0127"/>
  <anchor x="419" y="0" name="bottom"/>
  <anchor x="266" y="638" name="center"/>
  <anchor x="419" y="740" name="top"/>
  <outline>
    <contour>
      <point x="131" y="627" type="line"/>
      <point x="399" y="627" type="line"/>
      <point x="399" y="648" type="line"/>
      <point x="131" y="648" type="line"/>
    </contour>
    <component base="h"/>
  </outline>
</glyph>
<glyph name="kgreenlandic" format="2">
  <advance width="693"/>
  <unicode hex="0138"/>
  <anchor x="388" y="0" name="bottom"/>
  <anchor x="388" y="525" name="top"/>
  <outline>
    <contour>
      <point x="232" y="179" type="line"/>
      <point x="581" y="525" type="line"/>
      <point x="549" y="525" type="line"/>
      <point x="232" y="211" type="line"/>
    </contour>
    <contour>
      <point x="218" y="0" type="line"/>
      <point x="240" y="0" type="line"/>
      <point x="240" y="525" type="line"/>
      <point x="218" y="525" type="line"/>
    </contour>
    <contour>
      <point x="584" y="0" type="line"/>
      <point x="615" y="0" type="line"/>
      <point x="348" y="307" type="line"/>
      <point x="331" y="291" type="line"/>
    </contour>
  </outline>
</glyph>
<glyph name="Eng" format="2">
  <advance width="899"/>
  <unicode hex="014A"/>
  <outline>
    <contour>
      <point x="578" y="-194" type="line"/>
      <point x="658" y="-194"/>
      <point x="704" y="-147"/>
      <point x="704" y="-60" type="curve" smooth="yes"/>
      <point x="704" y="700" type="line"/>
      <point x="682" y="700" type="line"/>
      <point x="682" y="241" type="line" smooth="yes"/>
      <point x="682" y="92"/>
      <point x="685" y="60"/>
      <point x="685" y="31" type="curve"/>
      <point x="689" y="31" type="line"/>
      <point x="216" y="700" type="line"/>
      <point x="194" y="700" type="line"/>
      <point x="194" y="0" type="line"/>
      <point x="216" y="0" type="line"/>
      <point x="216" y="470" type="line" smooth="yes"/>
      <point x="216" y="493"/>
      <point x="216" y="663"/>
      <point x="214" y="686" type="curve"/>
      <point x="199" y="686" type="line"/>
      <point x="691" y="-10" type="line"/>
      <point x="682" y="19" type="line"/>
      <point x="682" y="-56" type="line" smooth="yes"/>
      <point x="682" y="-125"/>
      <point x="653" y="-173"/>
      <point x="570" y="-173" type="curve"/>
    </contour>
  </outline>
</glyph>
<glyph name="eng" format="2">
  <advance width="841"/>
  <unicode hex="014B"/>
  <outline>
    <contour>
      <point x="495" y="-194" type="line"/>
      <point x="575" y="-194"/>
      <point x="621" y="-147"/>
      <point x="621" y="-60" type="curve" smooth="yes"/>
      <point x="621" y="328" type="line" smooth="yes"/>
      <point x="621" y="469"/>
      <point x="553" y="530"/>
      <point x="436" y="530" type="curve" smooth="yes"/>
      <point x="357" y="530"/>
      <point x="289" y="497"/>
      <point x="240" y="420" type="curve"/>
      <point x="238" y="525" type="line"/>
      <point x="218" y="525" type="line"/>
      <point x="218" y="0" type="line"/>
      <point x="240" y="0" type="line"/>
      <point x="240" y="376" type="line" smooth="yes"/>
      <point x="240" y="417"/>
      <point x="321" y="508"/>
      <point x="434" y="508" type="curve" smooth="yes"/>
      <point x="539" y="508"/>
      <point x="599" y="455"/>
      <point x="599" y="328" type="curve" smooth="yes"/>
      <point x="599" y="-56" type="line" smooth="yes"/>
      <point x="599" y="-125"/>
      <point x="570" y="-173"/>
      <point x="487" y="-173" type="curve"/>
    </contour>
  </outline>
</glyph>
<glyph name="OE" format="2">
  <advance width="1167"/>
  <unicode hex="0152"/>
  <anchor x="581" y="0" name="bottom"/>
  <anchor x="581" y="700" name="top"/>
  <outline>
    <contour>
      <point x="460" y="0" type="curve" smooth="yes"/>
      <point x="1011" y="0" type="line"/>
      <point x="1011" y="22" type="line"/>
      <point x="648" y="22" type="line"/>
      <point x="648" y="351" type="line"/>
      <point x="959" y="351" type="line"/>
      <point x="959" y="373" type="line"/>
      <point x="648" y="373" type="line"/>
      <point x="648" y="678" type="line"/>
      <point x="1017" y="678" type="line"/>
      <point x="1017" y="700" type="line"/>
      <point x="451" y="700" type="line" smooth="yes"/>
      <point x="286" y="700"/>
      <point x="135" y="553"/>
      <point x="135" y="350" type="curve" smooth="yes"/>
      <point x="135" y="149"/>
      <point x="291" y="0"/>
    </contour>
    <contour>
      <point x="158" y="350" type="curve" smooth="yes"/>
      <point x="158" y="537"/>
      <point x="304" y="678"/>
      <point x="457" y="678" type="curve" smooth="yes"/>
      <point x="626" y="678" type="line"/>
      <point x="626" y="22" type="line"/>
      <point x="466" y="22" type="line" smooth="yes"/>
      <point x="307" y="22"/>
      <point x="158" y="165"/>
    </contour>
  </outline>
</glyph>
<glyph name="Uogonek" format="2">
  <advance width="908"/>
  <unicode hex="0172"/>
  <anchor x="454" y="0" name="bottom"/>
  <anchor x="605" y="-6" name="ogonek"/>
  <anchor x="454" y="700" name="top"/>
  <anchor x="806" y="700" name="topright"/>
  <outline>
    <contour>
      <point x="540" y="-236" type="curve" smooth="yes"/>
      <point x="580" y="-236"/>
      <point x="614" y="-214"/>
      <point x="630" y="-182" type="curve"/>
      <point x="615" y="-169" type="line"/>
      <point x="600" y="-196"/>
      <point x="575" y="-214"/>
      <point x="540" y="-214" type="curve" smooth="yes"/>
      <point x="496" y="-214"/>
      <point x="462" y="-180"/>
      <point x="462" y="-129" type="curve" smooth="yes"/>
      <point x="462" y="-63"/>
      <point x="520" y="-13"/>
      <point x="593" y="33" type="curve"/>
      <point x="588" y="51" type="line"/>
      <point x="513" y="5"/>
      <point x="440" y="-47"/>
      <point x="440" y="-132" type="curve" smooth="yes"/>
      <point x="440" y="-192"/>
      <point x="484" y="-236"/>
    </contour>
    <component base="U"/>
  </outline>
</glyph>
<glyph name="Schwa" format="2">
  <advance width="955"/>
  <unicode hex="018F"/>
  <anchor x="478" y="0" name="bottom"/>
  <anchor x="478" y="700" name="top"/>
  <outline>
    <contour>
      <point x="475" y="-10" type="curve" smooth="yes"/>
      <point x="671" y="-10"/>
      <point x="820" y="137"/>
      <point x="820" y="344" type="curve" smooth="yes"/>
      <point x="820" y="553"/>
      <point x="661" y="710"/>
      <point x="452" y="710" type="curve" smooth="yes"/>
      <point x="361" y="710"/>
      <point x="267" y="668"/>
      <point x="208" y="609" type="curve"/>
      <point x="223" y="593" type="line"/>
      <point x="280" y="648"/>
      <point x="363" y="688"/>
      <point x="450" y="688" type="curve" smooth="yes"/>
      <point x="647" y="688"/>
      <point x="797" y="543"/>
      <point x="797" y="348" type="curve" smooth="yes"/>
      <point x="797" y="153"/>
      <point x="659" y="12"/>
      <point x="476" y="12" type="curve" smooth="yes"/>
      <point x="283" y="12"/>
      <point x="157" y="160"/>
      <point x="157" y="343" type="curve"/>
      <point x="808" y="343" type="line"/>
      <point x="808" y="365" type="line"/>
      <point x="135" y="365" type="line"/>
      <point x="135" y="353" type="line" smooth="yes"/>
      <point x="131" y="148"/>
      <point x="275" y="-10"/>
    </contour>
  </outline>
</glyph>
<glyph name="florin" format="2">
  <advance width="692"/>
  <unicode hex="0192"/>
  <outline>
    <contour>
      <point x="172" y="-30" type="curve" smooth="yes"/>
      <point x="242" y="-30"/>
      <point x="279" y="19"/>
      <point x="297" y="120" type="curve" smooth="yes"/>
      <point x="369" y="528" type="line" smooth="yes"/>
      <point x="386" y="625"/>
      <point x="421" y="671"/>
      <point x="478" y="671" type="curve" smooth="yes"/>
      <point x="515" y="671"/>
      <point x="548" y="661"/>
      <point x="581" y="638" type="curve"/>
      <point x="592" y="658" type="line"/>
      <point x="559" y="681"/>
      <point x="524" y="693"/>
      <point x="483" y="693" type="curve" smooth="yes"/>
      <point x="406" y="693"/>
      <point x="367" y="642"/>
      <point x="348" y="539" type="curve" smooth="yes"/>
      <point x="270" y="100" type="line" smooth="yes"/>
      <point x="261" y="48"/>
      <point x="237" y="-8"/>
      <point x="176" y="-8" type="curve" smooth="yes"/>
      <point x="143" y="-8"/>
      <point x="125" y="-2"/>
      <point x="90" y="22" type="curve"/>
      <point x="80" y="2" type="line"/>
      <point x="105" y="-17"/>
      <point x="137" y="-30"/>
    </contour>
    <contour>
      <point x="156" y="422" type="line"/>
      <point x="525" y="422" type="line"/>
      <point x="525" y="444" type="line"/>
      <point x="156" y="444" type="line"/>
    </contour>
  </outline>
</glyph>
<glyph name="Nhookleft" format="2">
  <advance width="840"/>
  <unicode hex="019D"/>
  <anchor x="391" y="0" name="bottom"/>
  <anchor x="391" y="700" name="top"/>
  <outline>
    <contour>
      <point x="31" y="-194" type="line"/>
      <point x="111" y="-194"/>
      <point x="157" y="-147"/>
      <point x="157" y="-60" type="curve" smooth="yes"/>
      <point x="157" y="470" type="line" smooth="yes"/>
      <point x="157" y="495"/>
      <point x="157" y="661"/>
      <point x="155" y="686" type="curve"/>
      <point x="140" y="686" type="line"/>
      <point x="625" y="0" type="line"/>
      <point x="645" y="0" type="line"/>
      <point x="645" y="700" type="line"/>
      <point x="623" y="700" type="line"/>
      <point x="623" y="241" type="line" smooth="yes"/>
      <point x="623" y="92"/>
      <point x="625" y="60"/>
      <point x="626" y="31" type="curve"/>
      <point x="630" y="31" type="line"/>
      <point x="157" y="700" type="line"/>
      <point x="135" y="700" type="line"/>
      <point x="135" y="-56" type="line" smooth="yes"/>
      <point x="135" y="-125"/>
      <point x="106" y="-173"/>
      <point x="23" y="-173" type="curve"/>
    </contour>
  </outline>
</glyph>
<glyph name="ohorn" format="2">
  <advance width="795"/>
  <unicode hex="01A1"/>
  <anchor x="398" y="0" name="bottom"/>
  <anchor x="398" y="525" name="top"/>
  <outline>
    <contour>
      <point x="398" y="-10" type="curve" smooth="yes"/>
      <point x="557" y="-10"/>
      <point x="665" y="104"/>
      <point x="665" y="263" type="curve" smooth="yes"/>
      <point x="665" y="380"/>
      <point x="604" y="472"/>
      <point x="507" y="510" type="curve"/>
      <point x="500" y="499" type="line"/>
      <point x="584" y="487"/>
      <point x="636" y="543"/>
      <point x="636" y="624" type="curve"/>
      <point x="614" y="624" type="line"/>
      <point x="614" y="557"/>
      <point x="579" y="517"/>
      <point x="518" y="517" type="curve" smooth="yes"/>
      <point x="502" y="517"/>
      <point x="486" y="519"/>
      <point x="469" y="522" type="curve" smooth="yes"/>
      <point x="447" y="527"/>
      <point x="423" y="530"/>
      <point x="398" y="530" type="curve" smooth="yes"/>
      <point x="241" y="530"/>
      <point x="130" y="419"/>
      <point x="130" y="263" type="curve" smooth="yes"/>
      <point x="130" y="104"/>
      <point x="241" y="-10"/>
    </contour>
    <contour>
      <point x="398" y="12" type="curve" smooth="yes"/>
      <point x="255" y="12"/>
      <point x="152" y="116"/>
      <point x="152" y="263" type="curve" smooth="yes"/>
      <point x="152" y="404"/>
      <point x="255" y="508"/>
      <point x="398" y="508" type="curve" smooth="yes"/>
      <point x="539" y="508"/>
      <point x="643" y="404"/>
      <point x="643" y="263" type="curve" smooth="yes"/>
      <point x="643" y="116"/>
      <point x="539" y="12"/>
    </contour>
  </outline>
</glyph>
<glyph name="uhorn" format="2">
  <advance width="704"/>
  <unicode hex="01B0"/>
  <anchor x="396" y="0" name="bottom"/>
  <anchor x="396" y="525" name="top"/>
  <outline>
    <contour>
      <point x="390" y="-10" type="curve" smooth="yes"/>
      <point x="481" y="-10"/>
      <point x="560" y="54"/>
      <point x="581" y="127" type="curve"/>
      <point x="571" y="124" type="line"/>
      <point x="573" y="0" type="line"/>
      <point x="593" y="0" type="line"/>
      <point x="593" y="517" type="line"/>
      <point x="577" y="505" type="line"/>
      <point x="657" y="505"/>
      <point x="687" y="545"/>
      <point x="687" y="624" type="curve"/>
      <point x="665" y="624" type="line"/>
      <point x="665" y="556"/>
      <point x="643" y="525"/>
      <point x="571" y="525" type="curve"/>
      <point x="571" y="149" type="line" smooth="yes"/>
      <point x="571" y="106"/>
      <point x="489" y="12"/>
      <point x="392" y="12" type="curve" smooth="yes"/>
      <point x="283" y="12"/>
      <point x="222" y="67"/>
      <point x="222" y="197" type="curve" smooth="yes"/>
      <point x="222" y="525" type="line"/>
      <point x="200" y="525" type="line"/>
      <point x="200" y="197" type="line" smooth="yes"/>
      <point x="200" y="52"/>
      <point x="269" y="-10"/>
    </contour>
  </outline>
</glyph>
<glyph name="Oogonek" format="2">
  <advance width="958"/>
  <unicode hex="01EA"/>
  <anchor x="479" y="700" name="top"/>
  <anchor x="479" y="0" name="bottom"/>
  <anchor x="479" y="350" name="center"/>
  <anchor x="566" y="0" name="ogonek"/>
  <anchor x="100" y="700" name="topleft"/>
  <anchor x="858" y="700" name="topright"/>
  <outline>
    <contour>
      <point x="598" y="-236" type="curve" smooth="yes"/>
      <point x="638" y="-236"/>
      <point x="672" y="-214"/>
      <point x="688" y="-182" type="curve"/>
      <point x="673" y="-169" type="line"/>
      <point x="658" y="-196"/>
      <point x="633" y="-214"/>
      <point x="598" y="-214" type="curve" smooth="yes"/>
      <point x="554" y="-214"/>
      <point x="520" y="-180"/>
      <point x="520" y="-129" type="curve" smooth="yes"/>
      <point x="520" y="-63"/>
      <point x="578" y="-13"/>
      <point x="651" y="33" type="curve"/>
      <point x="646" y="51" type="line"/>
      <point x="571" y="5"/>
      <point x="498" y="-47"/>
      <point x="498" y="-132" type="curve" smooth="yes"/>
      <point x="498" y="-192"/>
      <point x="542" y="-236"/>
    </contour>
    <component base="O"/>
  </outline>
</glyph>
<glyph name="schwa" format="2">
  <advance width="720"/>
  <unicode hex="0259"/>
  <outline>
    <contour>
      <point x="355" y="-5" type="curve" smooth="yes"/>
      <point x="499" y="-5"/>
      <point x="600" y="105"/>
      <point x="600" y="262" type="curve" smooth="yes"/>
      <point x="600" y="421"/>
      <point x="495" y="535"/>
      <point x="343" y="535" type="curve" smooth="yes"/>
      <point x="267" y="535"/>
      <point x="205" y="505"/>
      <point x="156" y="460" type="curve"/>
      <point x="168" y="442" type="line"/>
      <point x="215" y="486"/>
      <point x="274" y="513"/>
      <point x="343" y="513" type="curve" smooth="yes"/>
      <point x="480" y="513"/>
      <point x="577" y="409"/>
      <point x="578" y="262" type="curve" smooth="yes"/>
      <point x="577" y="119"/>
      <point x="488" y="17"/>
      <point x="352" y="17" type="curve" smooth="yes"/>
      <point x="241" y="17"/>
      <point x="152" y="103"/>
      <point x="152" y="230" type="curve"/>
      <point x="154" y="255" type="line"/>
      <point x="142" y="238" type="line"/>
      <point x="588" y="238" type="line"/>
      <point x="588" y="260" type="line"/>
      <point x="131" y="260" type="line"/>
      <point x="130" y="234" type="line" smooth="yes"/>
      <point x="130" y="87"/>
      <point x="223" y="-5"/>
    </contour>
  </outline>
</glyph>
<glyph name="nhookleft" format="2">
  <advance width="875"/>
  <unicode hex="0272"/>
  <outline>
    <contour>
      <point x="148" y="-194" type="line"/>
      <point x="228" y="-194"/>
      <point x="274" y="-147"/>
      <point x="274" y="-60" type="curve" smooth="yes"/>
      <point x="274" y="376" type="line" smooth="yes"/>
      <point x="274" y="417"/>
      <point x="355" y="508"/>
      <point x="468" y="508" type="curve" smooth="yes"/>
      <point x="573" y="508"/>
      <point x="633" y="455"/>
      <point x="633" y="328" type="curve" smooth="yes"/>
      <point x="633" y="0" type="line"/>
      <point x="655" y="0" type="line"/>
      <point x="655" y="328" type="line" smooth="yes"/>
      <point x="655" y="469"/>
      <point x="587" y="530"/>
      <point x="470" y="530" type="curve" smooth="yes"/>
      <point x="372" y="530"/>
      <point x="284" y="469"/>
      <point x="264" y="399" type="curve"/>
      <point x="273" y="405" type="line"/>
      <point x="272" y="525" type="line"/>
      <point x="252" y="525" type="line"/>
      <point x="252" y="-56" type="line" smooth="yes"/>
      <point x="252" y="-125"/>
      <point x="223" y="-173"/>
      <point x="140" y="-173" type="curve"/>
    </contour>
  </outline>
</glyph>
<glyph name="dotaccentcomb" format="2">
  <unicode hex="0307"/>
  <anchor x="250" y="525" name="_top"/>
  <anchor x="250" y="690" name="top"/>
  <outline>
    <contour>
      <point x="250" y="663" type="curve" smooth="yes"/>
      <point x="269" y="663"/>
      <point x="278" y="675"/>
      <point x="278" y="692" type="curve" smooth="yes"/>
      <point x="278" y="709"/>
      <point x="267" y="721"/>
      <point x="250" y="721" type="curve" smooth="yes"/>
      <point x="231" y="721"/>
      <point x="222" y="708"/>
      <point x="222" y="692" type="curve" smooth="yes"/>
      <point x="222" y="675"/>
      <point x="231" y="663"/>
    </contour>
  </outline>
</glyph>
<glyph name="ringcomb" format="2">
  <unicode hex="030A"/>
  <anchor x="250" y="525" name="_top"/>
  <anchor x="250" y="720" name="top"/>
  <outline>
    <contour>
      <point x="250" y="594" type="curve" smooth="yes"/>
      <point x="299" y="594"/>
      <point x="342" y="635"/>
      <point x="342" y="682" type="curve" smooth="yes"/>
      <point x="342" y="731"/>
      <point x="301" y="772"/>
      <point x="250" y="772" type="curve" smooth="yes"/>
      <point x="199" y="772"/>
      <point x="158" y="731"/>
      <point x="158" y="682" type="curve" smooth="yes"/>
      <point x="158" y="634"/>
      <point x="201" y="594"/>
    </contour>
    <contour>
      <point x="250" y="614" type="curve" smooth="yes"/>
      <point x="211" y="614"/>
      <point x="179" y="646"/>
      <point x="179" y="682" type="curve" smooth="yes"/>
      <point x="179" y="723"/>
      <point x="209" y="752"/>
      <point x="250" y="752" type="curve" smooth="yes"/>
      <point x="290" y="752"/>
      <point x="321" y="725"/>
      <point x="321" y="682" type="curve" smooth="yes"/>
      <point x="321" y="646"/>
      <point x="290" y="614"/>
    </contour>
  </outline>
</glyph>
<glyph name="ogonekcomb" format="2">
  <unicode hex="0328"/>
  <anchor x="315" y="2" name="_ogonek"/>
  <outline>
    <contour>
      <point x="255" y="-230" type="curve" smooth="yes"/>
      <point x="292" y="-230"/>
      <point x="324" y="-208"/>
      <point x="340" y="-176" type="curve"/>
      <point x="325" y="-163" type="line"/>
      <point x="310" y="-190"/>
      <point x="287" y="-208"/>
      <point x="255" y="-208" type="curve" smooth="yes"/>
      <point x="213" y="-208"/>
      <point x="182" y="-174"/>
      <point x="182" y="-130" type="curve" smooth="yes"/>
      <point x="182" y="-59"/>
      <point x="240" y="-14"/>
      <point x="315" y="2" type="curve"/>
      <point x="310" y="18" type="line"/>
      <point x="234" y="5"/>
      <point x="160" y="-50"/>
      <point x="160" y="-130" type="curve" smooth="yes"/>
      <point x="160" y="-187"/>
      <point x="199" y="-230"/>
    </contour>
  </outline>
</glyph>
<glyph name="strokeshortcomb" format="2">
  <unicode hex="0335"/>
  <anchor x="250" y="299" name="_center"/>
  <outline>
    <contour>
      <point x="116" y="288" type="line"/>
      <point x="384" y="288" type="line"/>
      <point x="384" y="309" type="line"/>
      <point x="116" y="309" type="line"/>
    </contour>
  </outline>
</glyph>
<glyph name="Germandbls" format="2">
  <advance width="864"/>
  <unicode hex="1E9E"/>
  <anchor x="438" y="0" name="bottom"/>
  <anchor x="438" y="700" name="top"/>
  <outline>
    <contour>
      <point x="524" y="-10" type="curve" smooth="yes"/>
      <point x="661" y="-10"/>
      <point x="751" y="57"/>
      <point x="751" y="188" type="curve" smooth="yes"/>
      <point x="751" y="293"/>
      <point x="679" y="324"/>
      <point x="608" y="369" type="curve" smooth="yes"/>
      <point x="529" y="419"/>
      <point x="478" y="442"/>
      <point x="478" y="492" type="curve" smooth="yes"/>
      <point x="478" y="551"/>
      <point x="567" y="589"/>
      <point x="690" y="609" type="curve"/>
      <point x="688" y="634" type="line"/>
      <point x="637" y="678"/>
      <point x="567" y="710"/>
      <point x="470" y="710" type="curve" smooth="yes"/>
      <point x="270" y="710"/>
      <point x="194" y="609"/>
      <point x="194" y="402" type="curve" smooth="yes"/>
      <point x="194" y="0" type="line"/>
      <point x="217" y="0" type="line"/>
      <point x="217" y="391" type="line" smooth="yes"/>
      <point x="217" y="607"/>
      <point x="289" y="688"/>
      <point x="469" y="688" type="curve" smooth="yes"/>
      <point x="562" y="688"/>
      <point x="630" y="655"/>
      <point x="674" y="620" type="curve"/>
      <point x="674" y="625" type="line"/>
      <point x="544" y="601"/>
      <point x="456" y="559"/>
      <point x="456" y="492" type="curve" smooth="yes"/>
      <point x="456" y="443"/>
      <point x="486" y="418"/>
      <point x="592" y="354" type="curve" smooth="yes"/>
      <point x="663" y="311"/>
      <point x="728" y="283"/>
      <point x="728" y="183" type="curve" smooth="yes"/>
      <point x="728" y="76"/>
      <point x="649" y="12"/>
      <point x="525" y="12" type="curve" smooth="yes"/>
      <point x="460" y="12"/>
      <point x="394" y="38"/>
      <point x="346" y="93" type="curve"/>
      <point x="329" y="78" type="line"/>
      <point x="370" y="25"/>
      <point x="447" y="-10"/>
    </contour>
  </outline>
</glyph>
<glyph name="endash" format="2">
  <advance width="658"/>
  <unicode hex="2013"/>
  <outline>
    <contour>
      <point x="125" y="283" type="line"/>
      <point x="533" y="283" type="line"/>
      <point x="533" y="305" type="line"/>
      <point x="125" y="305" type="line"/>
    </contour>
  </outline>
</glyph>
<glyph name="quoteright" format="2">
  <advance width="336"/>
  <unicode hex="2019"/>
  <outline>
    <contour>
      <point x="122" y="572" type="line"/>
      <point x="178" y="620"/>
      <point x="186" y="650"/>
      <point x="186" y="687" type="curve" smooth="yes"/>
      <point x="186" y="727"/>
      <point x="169" y="748"/>
      <point x="140" y="748" type="curve" smooth="yes"/>
      <point x="120" y="748"/>
      <point x="110" y="736"/>
      <point x="110" y="720" type="curve" smooth="yes"/>
      <point x="110" y="705"/>
      <point x="118" y="695"/>
      <point x="129" y="691" type="curve" smooth="yes"/>
      <point x="148" y="684"/>
      <point x="158" y="679"/>
      <point x="158" y="658" type="curve" smooth="yes"/>
      <point x="158" y="641"/>
      <point x="138" y="612"/>
      <point x="113" y="584" type="curve"/>
    </contour>
  </outline>
</glyph>
<glyph name="daggerdbl" format="2">
  <advance width="590"/>
  <unicode hex="2021"/>
  <outline>
    <contour>
      <point x="284" y="197" type="line"/>
      <point x="306" y="197" type="line"/>
      <point x="306" y="720" type="line"/>
      <point x="284" y="720" type="line"/>
    </contour>
    <contour>
      <point x="139" y="393" type="line"/>
      <point x="451" y="393" type="line"/>
      <point x="451" y="415" type="line"/>
      <point x="139" y="415" type="line"/>
    </contour>
    <contour>
      <point x="139" y="552" type="line"/>
      <point x="451" y="552" type="line"/>
      <point x="451" y="574" type="line"/>
      <point x="139" y="574" type="line"/>
    </contour>
  </outline>
</glyph>
<glyph name="bullet" format="2">
  <advance width="564"/>
  <unicode hex="2022"/>
  <outline>
    <contour>
      <point x="280" y="274" type="curve" smooth="yes"/>
      <point x="320" y="274"/>
      <point x="353" y="305"/>
      <point x="353" y="344" type="curve" smooth="yes"/>
      <point x="353" y="383"/>
      <point x="320" y="415"/>
      <point x="280" y="415" type="curve" smooth="yes"/>
      <point x="243" y="415"/>
      <point x="210" y="383"/>
      <point x="210" y="344" type="curve" smooth="yes"/>
      <point x="210" y="305"/>
      <point x="244" y="274"/>
    </contour>
  </outline>
</glyph>
<glyph name="guilsinglleft" format="2">
  <advance width="454"/>
  <unicode hex="2039"/>
  <outline>
    <contour>
      <point x="292" y="73" type="line"/>
      <point x="311" y="86" type="line"/>
      <point x="140" y="281" type="line"/>
      <point x="140" y="261" type="line"/>
      <point x="311" y="444" type="line"/>
      <point x="292" y="457" type="line"/>
      <point x="123" y="274" type="line"/>
      <point x="123" y="268" type="line"/>
    </contour>
  </outline>
</glyph>
<glyph name="fraction" format="2">
  <advance width="606"/>
  <unicode hex="2044"/>
  <outline>
    <contour>
      <point x="52" y="0" type="line"/>
      <point x="79" y="0" type="line"/>
      <point x="547" y="700" type="line"/>
      <point x="520" y="700" type="line"/>
    </contour>
  </outline>
</glyph>
<glyph name="colonsign" format="2">
  <advance width="861"/>
  <unicode hex="20A1"/>
  <anchor x="465" y="0" name="bottom"/>
  <anchor x="479" y="700" name="top"/>
  <outline>
    <contour>
      <point x="312" y="-45" type="line"/>
      <point x="712" y="760" type="line"/>
      <point x="690" y="769" type="line"/>
      <point x="292" y="-35" type="line"/>
    </contour>
    <contour>
      <point x="177" y="-44" type="line"/>
      <point x="577" y="760" type="line"/>
      <point x="555" y="769" type="line"/>
      <point x="157" y="-35" type="line"/>
    </contour>
    <component base="C"/>
  </outline>
</glyph>
<glyph name="franc" format="2">
  <advance width="602"/>
  <unicode hex="20A3"/>
  <anchor x="372" y="0" name="bottom"/>
  <anchor x="372" y="700" name="top"/>
  <outline>
    <contour>
      <point x="96" y="161" type="line"/>
      <point x="364" y="161" type="line"/>
      <point x="364" y="182" type="line"/>
      <point x="96" y="182" type="line"/>
    </contour>
    <component base="F"/>
  </outline>
</glyph>
<glyph name="lira" format="2">
  <advance width="800"/>
  <unicode hex="20A4"/>
  <outline>
    <contour>
      <point x="247" y="47" type="line"/>
      <point x="303" y="84"/>
      <point x="320" y="147"/>
      <point x="320" y="202" type="curve" smooth="yes"/>
      <point x="320" y="256"/>
      <point x="309" y="298"/>
      <point x="290" y="353" type="curve" smooth="yes"/>
      <point x="275" y="399"/>
      <point x="257" y="453"/>
      <point x="257" y="501" type="curve" smooth="yes"/>
      <point x="257" y="601"/>
      <point x="329" y="673"/>
      <point x="430" y="673" type="curve" smooth="yes"/>
      <point x="489" y="673"/>
      <point x="532" y="658"/>
      <point x="581" y="597" type="curve"/>
      <point x="599" y="611" type="line"/>
      <point x="560" y="666"/>
      <point x="510" y="695"/>
      <point x="430" y="695" type="curve" smooth="yes"/>
      <point x="310" y="695"/>
      <point x="234" y="617"/>
      <point x="234" y="502" type="curve" smooth="yes"/>
      <point x="234" y="466"/>
      <point x="236" y="435"/>
      <point x="263" y="352" type="curve" smooth="yes"/>
      <point x="290" y="272"/>
      <point x="297" y="238"/>
      <point x="297" y="201" type="curve" smooth="yes"/>
      <point x="297" y="137"/>
      <point x="271" y="78"/>
      <point x="231" y="62" type="curve"/>
    </contour>
    <contour>
      <point x="537" y="-5" type="curve" smooth="yes"/>
      <point x="578" y="-5"/>
      <point x="616" y="10"/>
      <point x="652" y="31" type="curve"/>
      <point x="638" y="49" type="line"/>
      <point x="603" y="28"/>
      <point x="569" y="17"/>
      <point x="537" y="17" type="curve" smooth="yes"/>
      <point x="499" y="17"/>
      <point x="462" y="27"/>
      <point x="424" y="39" type="curve" smooth="yes"/>
      <point x="352" y="62"/>
      <point x="321" y="69"/>
      <point x="289" y="69" type="curve" smooth="yes"/>
      <point x="236" y="69"/>
      <point x="193" y="51"/>
      <point x="152" y="32" type="curve"/>
      <point x="163" y="13" type="line"/>
      <point x="207" y="33"/>
      <point x="252" y="47"/>
      <point x="289" y="47" type="curve" smooth="yes"/>
      <point x="318" y="47"/>
      <point x="375" y="28"/>
      <point x="403" y="20" type="curve" smooth="yes"/>
      <point x="448" y="7"/>
      <point x="494" y="-5"/>
    </contour>
    <contour>
      <point x="149" y="236" type="line"/>
      <point x="527" y="236" type="line"/>
      <point x="527" y="258" type="line"/>
      <point x="149" y="258" type="line"/>
    </contour>
    <contour>
      <point x="149" y="353" type="line"/>
      <point x="527" y="353" type="line"/>
      <point x="527" y="375" type="line"/>
      <point x="149" y="375" type="line"/>
    </contour>
  </outline>
</glyph>
<glyph name="naira" format="2">
  <advance width="899"/>
  <unicode hex="20A6"/>
  <anchor x="451" y="0" name="bottom"/>
  <anchor x="451" y="700" name="top"/>
  <outline>
    <contour>
      <point x="95" y="337" type="line"/>
      <point x="201" y="337" type="line"/>
      <point x="210" y="337" type="line"/>
      <point x="688" y="337" type="line"/>
      <point x="698" y="337" type="line"/>
      <point x="805" y="337" type="line"/>
      <point x="805" y="359" type="line"/>
      <point x="699" y="359" type="line"/>
      <point x="689" y="359" type="line"/>
      <point x="209" y="359" type="line"/>
      <point x="201" y="359" type="line"/>
      <point x="95" y="359" type="line"/>
    </contour>
    <component base="N" xOffset="1"/>
  </outline>
</glyph>
<glyph name="peseta" format="2">
  <advance width="820"/>
  <unicode hex="20A7"/>
  <anchor x="411" y="0" name="bottom"/>
  <anchor x="411" y="700" name="top"/>
  <outline>
    <contour>
      <point x="120" y="496" type="line"/>
      <point x="755" y="496" type="line"/>
      <point x="755" y="518" type="line"/>
      <point x="120" y="518" type="line"/>
    </contour>
    <component base="P" xOffset="27"/>
  </outline>
</glyph>
<glyph name="won" format="2">
  <advance width="989"/>
  <unicode hex="20A9"/>
  <anchor x="495" y="0" name="bottom"/>
  <anchor x="495" y="700" name="top"/>
  <outline>
    <contour>
      <point x="66" y="336" type="line"/>
      <point x="198" y="336" type="line"/>
      <point x="209" y="336" type="line"/>
      <point x="781" y="336" type="line"/>
      <point x="793" y="336" type="line"/>
      <point x="923" y="336" type="line"/>
      <point x="923" y="357" type="line"/>
      <point x="797" y="357" type="line"/>
      <point x="784" y="357" type="line"/>
      <point x="201" y="357" type="line"/>
      <point x="192" y="357" type="line"/>
      <point x="66" y="357" type="line"/>
    </contour>
    <component base="W"/>
  </outline>
</glyph>
<glyph name="dong" format="2">
  <advance width="681"/>
  <unicode hex="20AB"/>
  <outline>
    <contour>
      <point x="302" y="146" type="curve" smooth="yes"/>
      <point x="387" y="146"/>
      <point x="462" y="212"/>
      <point x="462" y="266" type="curve"/>
      <point x="457" y="284" type="line"/>
      <point x="457" y="156" type="line"/>
      <point x="479" y="156" type="line"/>
      <point x="479" y="700" type="line"/>
      <point x="457" y="700" type="line"/>
      <point x="457" y="390" type="line"/>
      <point x="464" y="384" type="line"/>
      <point x="452" y="447"/>
      <point x="382" y="497"/>
      <point x="307" y="497" type="curve" smooth="yes"/>
      <point x="210" y="497"/>
      <point x="130" y="420"/>
      <point x="130" y="321" type="curve" smooth="yes"/>
      <point x="130" y="216"/>
      <point x="210" y="146"/>
    </contour>
    <contour>
      <point x="135" y="0" type="line"/>
      <point x="499" y="0" type="line"/>
      <point x="499" y="22" type="line"/>
      <point x="135" y="22" type="line"/>
    </contour>
    <contour>
      <point x="307" y="168" type="curve" smooth="yes"/>
      <point x="216" y="168"/>
      <point x="152" y="234"/>
      <point x="152" y="321" type="curve" smooth="yes"/>
      <point x="152" y="410"/>
      <point x="217" y="475"/>
      <point x="309" y="475" type="curve" smooth="yes"/>
      <point x="396" y="475"/>
      <point x="459" y="406"/>
      <point x="459" y="321" type="curve" smooth="yes"/>
      <point x="459" y="239"/>
      <point x="391" y="168"/>
    </contour>
    <contour>
      <point x="293" y="592" type="line"/>
      <point x="556" y="592" type="line"/>
      <point x="556" y="614" type="line"/>
      <point x="293" y="614" type="line"/>
    </contour>
  </outline>
</glyph>
<glyph name="kip" format="2">
  <advance width="801"/>
  <unicode hex="20AD"/>
  <outline>
    <contour>
      <point x="170" y="234" type="line"/>
      <point x="648" y="700" type="line"/>
      <point x="616" y="700" type="line"/>
      <point x="170" y="265" type="line"/>
    </contour>
    <contour>
      <point x="160" y="0" type="line"/>
      <point x="182" y="0" type="line"/>
      <point x="182" y="700" type="line"/>
      <point x="160" y="700" type="line"/>
    </contour>
    <contour>
      <point x="70" y="400" type="line"/>
      <point x="170" y="400" type="line"/>
      <point x="170" y="422" type="line"/>
      <point x="70" y="422" type="line"/>
    </contour>
    <contour>
      <point x="637" y="0" type="line"/>
      <point x="666" y="0" type="line"/>
      <point x="349" y="420" type="line"/>
      <point x="332" y="404" type="line"/>
    </contour>
    <contour>
      <point x="352" y="400" type="line"/>
      <point x="619" y="400" type="line"/>
      <point x="619" y="422" type="line"/>
      <point x="352" y="422" type="line"/>
    </contour>
  </outline>
</glyph>
<glyph name="peso" format="2">
  <advance width="812"/>
  <unicode hex="20B1"/>
  <anchor x="494" y="0" name="bottom"/>
  <anchor x="494" y="700" name="top"/>
  <outline>
    <contour>
      <point x="120" y="548" type="line"/>
      <point x="226" y="548" type="line"/>
      <point x="236" y="548" type="line"/>
      <point x="634" y="548" type="line"/>
      <point x="644" y="548" type="line"/>
      <point x="747" y="548" type="line"/>
      <point x="747" y="569" type="line"/>
      <point x="638" y="569" type="line"/>
      <point x="631" y="569" type="line"/>
      <point x="239" y="569" type="line"/>
      <point x="226" y="569" type="line"/>
      <point x="120" y="569" type="line"/>
    </contour>
    <contour>
      <point x="120" y="417" type="line"/>
      <point x="226" y="417" type="line"/>
      <point x="235" y="417" type="line"/>
      <point x="624" y="417" type="line"/>
      <point x="633" y="417" type="line"/>
      <point x="747" y="417" type="line"/>
      <point x="747" y="438" type="line"/>
      <point x="641" y="438" type="line"/>
      <point x="629" y="438" type="line"/>
      <point x="232" y="438" type="line"/>
      <point x="225" y="438" type="line"/>
      <point x="120" y="438" type="line"/>
    </contour>
    <component base="P" xOffset="110"/>
  </outline>
</glyph>
<glyph name="rupeeIndian" format="2">
  <advance width="698"/>
  <unicode hex="20B9"/>
  <outline>
    <contour>
      <point x="158" y="314" type="line"/>
      <point x="257" y="314" type="line" smooth="yes"/>
      <point x="368" y="314"/>
      <point x="441" y="392"/>
      <point x="441" y="507" type="curve" smooth="yes"/>
      <point x="441" y="586"/>
      <point x="409" y="661"/>
      <point x="314" y="692" type="curve"/>
      <point x="320" y="678" type="line"/>
      <point x="541" y="678" type="line"/>
      <point x="541" y="700" type="line"/>
      <point x="112" y="700" type="line"/>
      <point x="112" y="678" type="line"/>
      <point x="263" y="678" type="line" smooth="yes"/>
      <point x="356" y="678"/>
      <point x="418" y="607"/>
      <point x="418" y="507" type="curve" smooth="yes"/>
      <point x="418" y="407"/>
      <point x="356" y="336"/>
      <point x="263" y="336" type="curve" smooth="yes"/>
      <point x="158" y="336" type="line"/>
      <point x="158" y="328" type="line"/>
    </contour>
    <contour>
      <point x="401" y="0" type="line"/>
      <point x="428" y="0" type="line"/>
      <point x="165" y="336" type="line"/>
      <point x="138" y="336" type="line"/>
    </contour>
    <contour>
      <point x="273" y="496" type="line"/>
      <point x="541" y="496" type="line"/>
      <point x="541" y="518" type="line"/>
      <point x="273" y="518" type="line"/>
    </contour>
  </outline>
</glyph>
<glyph name="liraTurkish" format="2">
  <advance width="802"/>
  <unicode hex="20BA"/>
  <outline>
    <contour>
      <point x="302" y="0" type="curve" smooth="yes"/>
      <point x="490" y="0"/>
      <point x="606" y="66"/>
      <point x="637" y="203" type="curve"/>
      <point x="617" y="208" type="line"/>
      <point x="580" y="73"/>
      <point x="463" y="23"/>
      <point x="300" y="23" type="curve"/>
      <point x="309" y="8" type="line"/>
      <point x="309" y="700" type="line"/>
      <point x="287" y="700" type="line"/>
      <point x="287" y="5" type="line"/>
      <point x="291" y="1"/>
      <point x="294" y="0"/>
    </contour>
    <contour>
      <point x="178" y="188" type="line"/>
      <point x="523" y="380" type="line"/>
      <point x="510" y="400" type="line"/>
      <point x="170" y="209" type="line"/>
    </contour>
    <contour>
      <point x="178" y="365" type="line"/>
      <point x="523" y="557" type="line"/>
      <point x="510" y="577" type="line"/>
      <point x="170" y="386" type="line"/>
    </contour>
  </outline>
</glyph>
<glyph name="ruble" format="2">
  <advance width="800"/>
  <unicode hex="20BD"/>
  <outline>
    <contour>
      <point x="220" y="0" type="line"/>
      <point x="242" y="0" type="line"/>
      <point x="242" y="300" type="line"/>
      <point x="228" y="291" type="line"/>
      <point x="471" y="291" type="line" smooth="yes"/>
      <point x="582" y="291"/>
      <point x="655" y="379"/>
      <point x="655" y="507" type="curve" smooth="yes"/>
      <point x="655" y="622"/>
      <point x="582" y="700"/>
      <point x="471" y="700" type="curve" smooth="yes"/>
      <point x="220" y="700" type="line"/>
    </contour>
    <contour>
      <point x="120" y="151" type="line"/>
      <point x="380" y="151" type="line"/>
      <point x="380" y="173" type="line"/>
      <point x="120" y="173" type="line"/>
    </contour>
    <contour>
      <point x="120" y="291" type="line"/>
      <point x="220" y="291" type="line"/>
      <point x="220" y="313" type="line"/>
      <point x="120" y="313" type="line"/>
    </contour>
    <contour>
      <point x="242" y="305" type="line"/>
      <point x="242" y="690" type="line"/>
      <point x="229" y="678" type="line"/>
      <point x="477" y="678" type="line" smooth="yes"/>
      <point x="570" y="678"/>
      <point x="632" y="607"/>
      <point x="632" y="507" type="curve" smooth="yes"/>
      <point x="632" y="392"/>
      <point x="570" y="313"/>
      <point x="477" y="313" type="curve" smooth="yes"/>
      <point x="227" y="313" type="line"/>
    </contour>
  </outline>
</glyph>
<glyph name="literSign" format="2">
  <advance width="779"/>
  <unicode hex="2113"/>
  <outline>
    <contour>
      <point x="430" y="-10" type="curve" smooth="yes"/>
      <point x="471" y="-10"/>
      <point x="522" y="5"/>
      <point x="562" y="44" type="curve"/>
      <point x="551" y="63" type="line"/>
      <point x="519" y="31"/>
      <point x="477" y="12"/>
      <point x="426" y="12" type="curve" smooth="yes"/>
      <point x="334" y="12"/>
      <point x="275" y="125"/>
      <point x="275" y="242" type="curve" smooth="yes"/>
      <point x="275" y="312"/>
      <point x="285" y="426"/>
      <point x="316" y="523" type="curve" smooth="yes"/>
      <point x="352" y="635"/>
      <point x="423" y="726"/>
      <point x="507" y="726" type="curve" smooth="yes"/>
      <point x="579" y="726"/>
      <point x="616" y="671"/>
      <point x="616" y="612" type="curve" smooth="yes"/>
      <point x="616" y="503"/>
      <point x="544" y="384"/>
      <point x="463" y="298" type="curve" smooth="yes"/>
      <point x="386" y="216"/>
      <point x="283" y="142"/>
      <point x="166" y="87" type="curve"/>
      <point x="177" y="67" type="line"/>
      <point x="297" y="123"/>
      <point x="404" y="203"/>
      <point x="461" y="264" type="curve" smooth="yes"/>
      <point x="584" y="388"/>
      <point x="639" y="512"/>
      <point x="639" y="608" type="curve" smooth="yes"/>
      <point x="639" y="695"/>
      <point x="589" y="748"/>
      <point x="508" y="748" type="curve" smooth="yes"/>
      <point x="419" y="748"/>
      <point x="348" y="677"/>
      <point x="303" y="558" type="curve" smooth="yes"/>
      <point x="268" y="465"/>
      <point x="252" y="346"/>
      <point x="252" y="247" type="curve" smooth="yes"/>
      <point x="252" y="98"/>
      <point x="323" y="-10"/>
    </contour>
  </outline>
</glyph>
<glyph name="numero" format="2">
  <advance width="1301"/>
  <unicode hex="2116"/>
  <anchor x="450" y="0" name="bottom"/>
  <anchor x="450" y="700" name="top"/>
  <outline>
    <contour>
      <point x="837" y="226" type="line"/>
      <point x="1166" y="226" type="line"/>
      <point x="1166" y="248" type="line"/>
      <point x="837" y="248" type="line"/>
    </contour>
    <contour>
      <point x="1001" y="358" type="curve" smooth="yes"/>
      <point x="1100" y="358"/>
      <point x="1177" y="435"/>
      <point x="1177" y="534" type="curve" smooth="yes"/>
      <point x="1177" y="633"/>
      <point x="1100" y="710"/>
      <point x="1001" y="710" type="curve" smooth="yes"/>
      <point x="904" y="710"/>
      <point x="826" y="633"/>
      <point x="826" y="534" type="curve" smooth="yes"/>
      <point x="826" y="435"/>
      <point x="904" y="358"/>
    </contour>
    <contour>
      <point x="1001" y="380" type="curve" smooth="yes"/>
      <point x="916" y="380"/>
      <point x="848" y="447"/>
      <point x="848" y="534" type="curve" smooth="yes"/>
      <point x="848" y="619"/>
      <point x="916" y="688"/>
      <point x="1001" y="688" type="curve" smooth="yes"/>
      <point x="1088" y="688"/>
      <point x="1155" y="619"/>
      <point x="1155" y="534" type="curve" smooth="yes"/>
      <point x="1155" y="447"/>
      <point x="1088" y="380"/>
    </contour>
    <component base="N"/>
  </outline>
</glyph>
<glyph name="Ohm" format="2">
  <advance width="825"/>
  <unicode hex="2126"/>
  <outline>
    <contour>
      <point x="114" y="0" type="line"/>
      <point x="346" y="0" type="line"/>
      <point x="346" y="22" type="line"/>
      <point x="300" y="52"/>
      <point x="227" y="129"/>
      <point x="177" y="217" type="curve" smooth="yes"/>
      <point x="144" y="276"/>
      <point x="123" y="343"/>
      <point x="123" y="403" type="curve" smooth="yes"/>
      <point x="123" y="548"/>
      <point x="236" y="688"/>
      <point x="413" y="688" type="curve" smooth="yes"/>
      <point x="590" y="688"/>
      <point x="703" y="548"/>
      <point x="703" y="403" type="curve" smooth="yes"/>
      <point x="703" y="342"/>
      <point x="682" y="275"/>
      <point x="649" y="216" type="curve" smooth="yes"/>
      <point x="599" y="128"/>
      <point x="526" y="52"/>
      <point x="480" y="22" type="curve"/>
      <point x="480" y="0" type="line"/>
      <point x="712" y="0" type="line"/>
      <point x="712" y="22" type="line"/>
      <point x="500" y="22" type="line"/>
      <point x="501" y="10" type="line"/>
      <point x="637" y="119"/>
      <point x="726" y="261"/>
      <point x="726" y="404" type="curve" smooth="yes"/>
      <point x="726" y="576"/>
      <point x="592" y="710"/>
      <point x="413" y="710" type="curve" smooth="yes"/>
      <point x="234" y="710"/>
      <point x="100" y="576"/>
      <point x="100" y="404" type="curve" smooth="yes"/>
      <point x="100" y="261"/>
      <point x="189" y="119"/>
      <point x="325" y="10" type="curve"/>
      <point x="326" y="22" type="line"/>
      <point x="114" y="22" type="line"/>
    </contour>
  </outline>
</glyph>
<glyph name="partialdiff" format="2">
  <advance width="756"/>
  <unicode hex="2202"/>
  <outline>
    <contour>
      <point x="378" y="-10" type="curve" smooth="yes"/>
      <point x="521" y="-10"/>
      <point x="623" y="110"/>
      <point x="626" y="271" type="curve" smooth="yes"/>
      <point x="626" y="439"/>
      <point x="586" y="551"/>
      <point x="518" y="622" type="curve" smooth="yes"/>
      <point x="450" y="694"/>
      <point x="378" y="726"/>
      <point x="301" y="738" type="curve"/>
      <point x="292" y="719" type="line"/>
      <point x="464" y="691"/>
      <point x="593" y="544"/>
      <point x="593" y="368" type="curve"/>
      <point x="600" y="368" type="line"/>
      <point x="591" y="445"/>
      <point x="498" y="527"/>
      <point x="382" y="527" type="curve" smooth="yes"/>
      <point x="235" y="527"/>
      <point x="130" y="422"/>
      <point x="130" y="263" type="curve" smooth="yes"/>
      <point x="130" y="102"/>
      <point x="231" y="-10"/>
    </contour>
    <contour>
      <point x="378" y="12" type="curve" smooth="yes"/>
      <point x="246" y="12"/>
      <point x="153" y="116"/>
      <point x="153" y="263" type="curve" smooth="yes"/>
      <point x="153" y="406"/>
      <point x="246" y="505"/>
      <point x="378" y="505" type="curve" smooth="yes"/>
      <point x="510" y="505"/>
      <point x="603" y="406"/>
      <point x="603" y="263" type="curve" smooth="yes"/>
      <point x="603" y="116"/>
      <point x="510" y="12"/>
    </contour>
  </outline>
</glyph>
<glyph name="emptyset" format="2">
  <advance width="795"/>
  <unicode hex="2205"/>
  <anchor x="398" y="0" name="bottom"/>
  <anchor x="398" y="263" name="center"/>
  <anchor x="548" y="0" name="ogonek"/>
  <anchor x="398" y="525" name="top"/>
  <anchor x="685" y="525" name="topright"/>
  <outline>
    <contour>
      <point x="172" y="-19" type="line"/>
      <point x="641" y="530" type="line"/>
      <point x="623" y="545" type="line"/>
      <point x="155" y="-5" type="line"/>
    </contour>
    <component base="o"/>
  </outline>
</glyph>
<glyph name="increment" format="2">
  <advance width="860"/>
  <unicode hex="2206"/>
  <outline>
    <contour>
      <point x="82" y="0" type="line"/>
      <point x="773" y="0" type="line"/>
      <point x="425" y="722" type="line"/>
    </contour>
    <contour>
      <point x="112" y="9" type="line"/>
      <point x="429" y="669" type="line"/>
      <point x="421" y="669" type="line"/>
      <point x="741" y="10" type="line"/>
      <point x="747" y="22" type="line"/>
      <point x="104" y="22" type="line"/>
    </contour>
  </outline>
</glyph>
<glyph name="product" format="2">
  <advance width="832"/>
  <unicode hex="220F"/>
  <outline>
    <contour>
      <point x="621" y="-200" type="line"/>
      <point x="643" y="-200" type="line"/>
      <point x="643" y="693" type="line"/>
      <point x="621" y="693" type="line"/>
    </contour>
    <contour>
      <point x="189" y="-200" type="line"/>
      <point x="211" y="-200" type="line"/>
      <point x="211" y="693" type="line"/>
      <point x="189" y="693" type="line"/>
    </contour>
    <contour>
      <point x="90" y="678" type="line"/>
      <point x="742" y="678" type="line"/>
      <point x="742" y="700" type="line"/>
      <point x="90" y="700" type="line"/>
    </contour>
  </outline>
</glyph>
<glyph name="minus" format="2">
  <advance width="762"/>
  <unicode hex="2212"/>
  <outline>
    <contour>
      <point x="140" y="275" type="line"/>
      <point x="622" y="275" type="line"/>
      <point x="622" y="297" type="line"/>
      <point x="140" y="297" type="line"/>
    </contour>
  </outline>
</glyph>
<glyph name="divisionslash" format="2">
  <advance width="803"/>
  <unicode hex="2215"/>
  <outline>
    <contour>
      <point x="160" y="-107" type="line"/>
      <point x="186" y="-107" type="line"/>
      <point x="610" y="756" type="line"/>
      <point x="584" y="756" type="line"/>
    </contour>
  </outline>
</glyph>
<glyph name="bulletoperator" format="2">
  <advance width="504"/>
  <unicode hex="2219"/>
  <outline>
    <contour>
      <point x="253" y="274" type="curve" smooth="yes"/>
      <point x="267" y="274"/>
      <point x="279" y="286"/>
      <point x="279" y="301" type="curve" smooth="yes"/>
      <point x="279" y="316"/>
      <point x="267" y="328"/>
      <point x="253" y="328" type="curve" smooth="yes"/>
      <point x="238" y="328"/>
      <point x="225" y="316"/>
      <point x="225" y="301" type="curve" smooth="yes"/>
      <point x="225" y="286"/>
      <point x="238" y="274"/>
    </contour>
  </outline>
</glyph>
<glyph name="radical" format="2">
  <advance width="794"/>
  <unicode hex="221A"/>
  <outline>
    <contour>
      <point x="276" y="-112" type="line"/>
      <point x="279" y="-112" type="line"/>
      <point x="563" y="691" type="line"/>
      <point x="540" y="678" type="line"/>
      <point x="724" y="678" type="line"/>
      <point x="724" y="700" type="line"/>
      <point x="540" y="700" type="line"/>
      <point x="269" y="-67" type="line"/>
      <point x="284" y="-67" type="line"/>
      <point x="133" y="309" type="line"/>
      <point x="107" y="309" type="line"/>
    </contour>
  </outline>
</glyph>
<glyph name="infinity" format="2">
  <advance width="977"/>
  <unicode hex="221E"/>
  <outline>
    <contour>
      <point x="719" y="47" type="curve" smooth="yes"/>
      <point x="818" y="47"/>
      <point x="887" y="122"/>
      <point x="887" y="242" type="curve" smooth="yes"/>
      <point x="887" y="361"/>
      <point x="816" y="437"/>
      <point x="717" y="437" type="curve" smooth="yes"/>
      <point x="656" y="437"/>
      <point x="609" y="420"/>
      <point x="553" y="346" type="curve" smooth="yes"/>
      <point x="407" y="153" type="line" smooth="yes"/>
      <point x="362" y="93"/>
      <point x="314" y="69"/>
      <point x="260" y="69" type="curve" smooth="yes"/>
      <point x="179" y="69"/>
      <point x="113" y="135"/>
      <point x="113" y="242" type="curve" smooth="yes"/>
      <point x="113" y="349"/>
      <point x="179" y="415"/>
      <point x="260" y="415" type="curve" smooth="yes"/>
      <point x="314" y="415"/>
      <point x="359" y="395"/>
      <point x="407" y="331" type="curve" smooth="yes"/>
      <point x="541" y="153" type="line" smooth="yes"/>
      <point x="604" y="70"/>
      <point x="651" y="47"/>
    </contour>
    <contour>
      <point x="258" y="47" type="curve" smooth="yes"/>
      <point x="326" y="47"/>
      <point x="373" y="70"/>
      <point x="436" y="153" type="curve" smooth="yes"/>
      <point x="585" y="351" type="line" smooth="yes"/>
      <point x="620" y="398"/>
      <point x="667" y="415"/>
      <point x="710" y="415" type="curve" smooth="yes"/>
      <point x="799" y="415"/>
      <point x="864" y="347"/>
      <point x="864" y="242" type="curve" smooth="yes"/>
      <point x="864" y="135"/>
      <point x="798" y="69"/>
      <point x="717" y="69" type="curve" smooth="yes"/>
      <point x="663" y="69"/>
      <point x="615" y="93"/>
      <point x="570" y="153" type="curve" smooth="yes"/>
      <point x="436" y="331" type="line" smooth="yes"/>
      <point x="373" y="414"/>
      <point x="326" y="437"/>
      <point x="258" y="437" type="curve" smooth="yes"/>
      <point x="159" y="437"/>
      <point x="90" y="362"/>
      <point x="90" y="242" type="curve" smooth="yes"/>
      <point x="90" y="122"/>
      <point x="159" y="47"/>
    </contour>
  </outline>
</glyph>
<glyph name="integral" format="2">
  <advance width="636"/>
  <unicode hex="222B"/>
  <outline>
    <contour>
      <point x="132" y="-127" type="curve" smooth="yes"/>
      <point x="209" y="-127"/>
      <point x="249" y="-61"/>
      <point x="273" y="71" type="curve" smooth="yes"/>
      <point x="359" y="551" type="line" smooth="yes"/>
      <point x="379" y="663"/>
      <point x="417" y="723"/>
      <point x="482" y="723" type="curve" smooth="yes"/>
      <point x="518" y="723"/>
      <point x="548" y="707"/>
      <point x="573" y="688" type="curve"/>
      <point x="586" y="710" type="line"/>
      <point x="561" y="727"/>
      <point x="528" y="748"/>
      <point x="483" y="748" type="curve" smooth="yes"/>
      <point x="385" y="748"/>
      <point x="351" y="647"/>
      <point x="334" y="550" type="curve" smooth="yes"/>
      <point x="248" y="68" type="line" smooth="yes"/>
      <point x="229" y="-41"/>
      <point x="192" y="-105"/>
      <point x="134" y="-105" type="curve" smooth="yes"/>
      <point x="101" y="-105"/>
      <point x="79" y="-96"/>
      <point x="39" y="-61" type="curve"/>
      <point x="25" y="-81" type="line"/>
      <point x="59" y="-110"/>
      <point x="97" y="-127"/>
    </contour>
  </outline>
</glyph>
<glyph name="approxequal" format="2">
  <advance width="671"/>
  <unicode hex="2248"/>
  <outline>
    <contour>
      <point x="447" y="339" type="curve" smooth="yes"/>
      <point x="487" y="339"/>
      <point x="511" y="366"/>
      <point x="511" y="413" type="curve"/>
      <point x="489" y="415" type="line"/>
      <point x="489" y="384"/>
      <point x="478" y="360"/>
      <point x="442" y="360" type="curve" smooth="yes"/>
      <point x="429" y="360"/>
      <point x="391" y="367"/>
      <point x="357" y="374" type="curve" smooth="yes"/>
      <point x="282" y="389"/>
      <point x="251" y="396"/>
      <point x="231" y="396" type="curve" smooth="yes"/>
      <point x="187" y="396"/>
      <point x="164" y="369"/>
      <point x="164" y="322" type="curve"/>
      <point x="186" y="320" type="line"/>
      <point x="186" y="351"/>
      <point x="197" y="375"/>
      <point x="236" y="375" type="curve" smooth="yes"/>
      <point x="256" y="375"/>
      <point x="286" y="368"/>
      <point x="320" y="361" type="curve" smooth="yes"/>
      <point x="408" y="342"/>
      <point x="430" y="339"/>
    </contour>
    <contour>
      <point x="447" y="153" type="curve" smooth="yes"/>
      <point x="487" y="153"/>
      <point x="511" y="180"/>
      <point x="511" y="227" type="curve"/>
      <point x="489" y="229" type="line"/>
      <point x="489" y="198"/>
      <point x="478" y="174"/>
      <point x="442" y="174" type="curve" smooth="yes"/>
      <point x="429" y="174"/>
      <point x="391" y="181"/>
      <point x="357" y="188" type="curve" smooth="yes"/>
      <point x="282" y="203"/>
      <point x="251" y="210"/>
      <point x="231" y="210" type="curve" smooth="yes"/>
      <point x="187" y="210"/>
      <point x="164" y="183"/>
      <point x="164" y="136" type="curve"/>
      <point x="186" y="134" type="line"/>
      <point x="186" y="165"/>
      <point x="197" y="189"/>
      <point x="236" y="189" type="curve" smooth="yes"/>
      <point x="256" y="189"/>
      <point x="286" y="182"/>
      <point x="320" y="175" type="curve" smooth="yes"/>
      <point x="401" y="158"/>
      <point x="430" y="153"/>
    </contour>
  </outline>
</glyph>
<glyph name="notequal" format="2">
  <advance width="696"/>
  <unicode hex="2260"/>
  <outline>
    <contour>
      <point x="212" y="46" type="line"/>
      <point x="238" y="46" type="line"/>
      <point x="496" y="516" type="line"/>
      <point x="470" y="516" type="line"/>
    </contour>
    <contour>
      <point x="135" y="191" type="line"/>
      <point x="571" y="191" type="line"/>
      <point x="571" y="213" type="line"/>
      <point x="135" y="213" type="line"/>
    </contour>
    <contour>
      <point x="135" y="349" type="line"/>
      <point x="571" y="349" type="line"/>
      <point x="571" y="371" type="line"/>
      <point x="135" y="371" type="line"/>
    </contour>
  </outline>
</glyph>
<glyph name="lessequal" format="2">
  <advance width="656"/>
  <unicode hex="2264"/>
  <outline>
    <contour>
      <point x="529" y="165" type="line"/>
      <point x="536" y="186" type="line"/>
      <point x="108" y="328" type="line"/>
      <point x="108" y="318" type="line"/>
      <point x="534" y="460" type="line"/>
      <point x="529" y="482" type="line"/>
      <point x="103" y="340" type="line"/>
      <point x="103" y="306" type="line"/>
    </contour>
    <contour>
      <point x="105" y="0" type="line"/>
      <point x="534" y="0" type="line"/>
      <point x="534" y="22" type="line"/>
      <point x="105" y="22" type="line"/>
    </contour>
  </outline>
</glyph>
<glyph name="lozenge" format="2">
  <advance width="777"/>
  <unicode hex="25CA"/>
  <outline>
    <contour>
      <point x="389" y="-37" type="line"/>
      <point x="650" y="328" type="line"/>
      <point x="389" y="689" type="line"/>
      <point x="126" y="328" type="line"/>
    </contour>
    <contour>
      <point x="389" y="4" type="line"/>
      <point x="156" y="328" type="line"/>
      <point x="389" y="649" type="line"/>
      <point x="620" y="328" type="line"/>
    </contour>
  </outline>
</glyph>
<glyph name="I.ss01" format="2">
  <advance width="493"/>
  <anchor x="247" y="0" name="bottom"/>
  <anchor x="258" y="0" name="ogonek"/>
  <anchor x="247" y="700" name="top"/>
  <anchor x="113" y="700" name="topleft"/>
  <outline>
    <contour>
      <point x="236" y="0" type="line"/>
      <point x="258" y="0" type="line"/>
      <point x="258" y="700" type="line"/>
      <point x="254" y="700"/>
      <point x="250" y="700"/>
      <point x="247" y="700" type="curve" smooth="yes"/>
      <point x="236" y="700" type="line"/>
    </contour>
  </outline>
</glyph>
<glyph name="J.ss01" format="2">
  <advance width="683"/>
  <anchor x="342" y="0" name="bottom"/>
  <anchor x="477" y="700" name="top"/>
  <outline>
    <contour>
      <point x="294" y="-10" type="curve" smooth="yes"/>
      <point x="407" y="-10"/>
      <point x="488" y="58"/>
      <point x="488" y="213" type="curve" smooth="yes"/>
      <point x="488" y="700" type="line"/>
      <point x="466" y="700" type="line"/>
      <point x="466" y="213" type="line" smooth="yes"/>
      <point x="466" y="72"/>
      <point x="396" y="12"/>
      <point x="296" y="12" type="curve" smooth="yes"/>
      <point x="216" y="12"/>
      <point x="158" y="51"/>
      <point x="121" y="135" type="curve"/>
      <point x="105" y="120" type="line"/>
      <point x="137" y="40"/>
      <point x="202" y="-10"/>
    </contour>
  </outline>
</glyph>
<glyph name="a.ss01" format="2">
  <advance width="771"/>
  <anchor x="351" y="0" name="bottom"/>
  <anchor x="546" y="0" name="ogonek"/>
  <anchor x="351" y="525" name="top"/>
  <outline>
    <contour>
      <point x="524" y="0" type="line"/>
      <point x="546" y="0" type="line"/>
      <point x="546" y="364" type="line" smooth="yes"/>
      <point x="546" y="469"/>
      <point x="474" y="530"/>
      <point x="354" y="530" type="curve" smooth="yes"/>
      <point x="271" y="530"/>
      <point x="200" y="495"/>
      <point x="147" y="430" type="curve"/>
      <point x="163" y="414" type="line"/>
      <point x="210" y="474"/>
      <point x="278" y="508"/>
      <point x="353" y="508" type="curve" smooth="yes"/>
      <point x="462" y="508"/>
      <point x="524" y="452"/>
      <point x="524" y="367" type="curve" smooth="yes"/>
    </contour>
    <contour>
      <point x="300" y="-10" type="curve" smooth="yes"/>
      <point x="407" y="-10"/>
      <point x="494" y="54"/>
      <point x="542" y="146" type="curve"/>
      <point x="529" y="157" type="line"/>
      <point x="485" y="70"/>
      <point x="400" y="12"/>
      <point x="301" y="12" type="curve" smooth="yes"/>
      <point x="216" y="12"/>
      <point x="144" y="68"/>
      <point x="144" y="149" type="curve" smooth="yes"/>
      <point x="144" y="224"/>
      <point x="209" y="265"/>
      <point x="322" y="265" type="curve" smooth="yes"/>
      <point x="532" y="265" type="line"/>
      <point x="532" y="287" type="line"/>
      <point x="328" y="287" type="line" smooth="yes"/>
      <point x="192" y="287"/>
      <point x="122" y="237"/>
      <point x="122" y="149" type="curve" smooth="yes"/>
      <point x="122" y="53"/>
      <point x="199" y="-10"/>
    </contour>
  </outline>
</glyph>
<glyph name="brevecomb_hookabovecomb" format="2">
  <anchor x="250" y="525" name="_top"/>
  <anchor x="250" y="790" name="top"/>
  <outline>
    <contour>
      <point x="250" y="613" type="curve" smooth="yes"/>
      <point x="317" y="613"/>
      <point x="367" y="651"/>
      <point x="382" y="713" type="curve"/>
      <point x="360" y="715" type="line"/>
      <point x="348" y="664"/>
      <point x="302" y="634"/>
      <point x="250" y="634" type="curve" smooth="yes"/>
      <point x="197" y="634"/>
      <point x="153" y="664"/>
      <point x="140" y="715" type="curve"/>
      <point x="118" y="713" type="line"/>
      <point x="134" y="651"/>
      <point x="182" y="613"/>
    </contour>
    <contour>
      <point x="243" y="728" type="curve"/>
      <point x="265" y="733" type="line"/>
      <point x="263" y="737"/>
      <point x="261" y="741"/>
      <point x="261" y="746" type="curve" smooth="yes"/>
      <point x="261" y="756"/>
      <point x="274" y="766"/>
      <point x="289" y="774" type="curve" smooth="yes"/>
      <point x="310" y="786"/>
      <point x="333" y="801"/>
      <point x="333" y="829" type="curve" smooth="yes"/>
      <point x="333" y="861"/>
      <point x="298" y="882"/>
      <point x="246" y="882" type="curve" smooth="yes"/>
      <point x="218" y="882"/>
      <point x="194" y="877"/>
      <point x="171" y="868" type="curve"/>
      <point x="178" y="848" type="line"/>
      <point x="203" y="857"/>
      <point x="226" y="860"/>
      <point x="247" y="860" type="curve" smooth="yes"/>
      <point x="281" y="860"/>
      <point x="308" y="850"/>
      <point x="308" y="829" type="curve" smooth="yes"/>
      <point x="308" y="810"/>
      <point x="290" y="799"/>
      <point x="272" y="787" type="curve" smooth="yes"/>
      <point x="254" y="776"/>
      <point x="237" y="765"/>
      <point x="237" y="747" type="curve" smooth="yes"/>
      <point x="237" y="739"/>
      <point x="240" y="734"/>
    </contour>
  </outline>
</glyph>
<glyph name="brevecomb_tildecomb" format="2">
  <anchor x="250" y="525" name="_top"/>
  <anchor x="250" y="790" name="top"/>
  <outline>
    <contour>
      <point x="249" y="613" type="curve" smooth="yes"/>
      <point x="316" y="613"/>
      <point x="366" y="658"/>
      <point x="381" y="713" type="curve"/>
      <point x="359" y="715" type="line"/>
      <point x="347" y="671"/>
      <point x="301" y="634"/>
      <point x="249" y="634" type="curve" smooth="yes"/>
      <point x="196" y="634"/>
      <point x="152" y="671"/>
      <point x="139" y="715" type="curve"/>
      <point x="117" y="713" type="line"/>
      <point x="133" y="658"/>
      <point x="181" y="613"/>
    </contour>
    <contour>
      <point x="318" y="809" type="curve" smooth="yes"/>
      <point x="348" y="809"/>
      <point x="375" y="829"/>
      <point x="383" y="868" type="curve"/>
      <point x="364" y="872" type="line"/>
      <point x="355" y="839"/>
      <point x="337" y="831"/>
      <point x="317" y="831" type="curve" smooth="yes"/>
      <point x="292" y="831"/>
      <point x="270" y="844"/>
      <point x="251" y="856" type="curve" smooth="yes"/>
      <point x="231" y="869"/>
      <point x="213" y="882"/>
      <point x="187" y="882" type="curve" smooth="yes"/>
      <point x="154" y="882"/>
      <point x="128" y="859"/>
      <point x="121" y="825" type="curve"/>
      <point x="144" y="821" type="line"/>
      <point x="150" y="849"/>
      <point x="167" y="860"/>
      <point x="187" y="860" type="curve" smooth="yes"/>
      <point x="208" y="860"/>
      <point x="226" y="848"/>
      <point x="246" y="836" type="curve" smooth="yes"/>
      <point x="267" y="823"/>
      <point x="292" y="809"/>
    </contour>
  </outline>
</glyph>
<glyph name="breveinvertedcomb.case" format="2">
  <anchor x="250" y="700" name="_top"/>
  <anchor x="250" y="820" name="top"/>
  <outline>
    <contour>
      <point x="140" y="767" type="line"/>
      <point x="152" y="821"/>
      <point x="198" y="858"/>
      <point x="250" y="858" type="curve" smooth="yes"/>
      <point x="303" y="858"/>
      <point x="347" y="821"/>
      <point x="360" y="767" type="curve"/>
      <point x="382" y="769" type="line"/>
      <point x="366" y="834"/>
      <point x="318" y="879"/>
      <point x="250" y="879" type="curve" smooth="yes"/>
      <point x="183" y="879"/>
      <point x="133" y="834"/>
      <point x="118" y="769" type="curve"/>
    </contour>
  </outline>
</glyph>
<glyph name="caroncomb.alt" format="2">
  <anchor x="182" y="664" name="_topright"/>
  <outline>
    <contour>
      <point x="235" y="528" type="line"/>
      <point x="273" y="559"/>
      <point x="282" y="583"/>
      <point x="282" y="618" type="curve" smooth="yes"/>
      <point x="282" y="646"/>
      <point x="268" y="664"/>
      <point x="246" y="664" type="curve" smooth="yes"/>
      <point x="228" y="664"/>
      <point x="219" y="652"/>
      <point x="219" y="640" type="curve" smooth="yes"/>
      <point x="219" y="627"/>
      <point x="225" y="618"/>
      <point x="239" y="611" type="curve" smooth="yes"/>
      <point x="253" y="604"/>
      <point x="256" y="599"/>
      <point x="256" y="588" type="curve" smooth="yes"/>
      <point x="256" y="570"/>
      <point x="235" y="553"/>
      <point x="222" y="541" type="curve"/>
    </contour>
  </outline>
</glyph>
<glyph name="circumflexcomb_tildecomb" format="2">
  <anchor x="250" y="525" name="_top"/>
  <anchor x="250" y="790" name="top"/>
  <outline>
    <contour>
      <point x="138" y="621" type="line"/>
      <point x="255" y="713" type="line"/>
      <point x="240" y="713" type="line"/>
      <point x="356" y="621" type="line"/>
      <point x="368" y="634" type="line"/>
      <point x="261" y="726" type="line"/>
      <point x="233" y="726" type="line"/>
      <point x="126" y="634" type="line"/>
    </contour>
    <contour>
      <point x="316" y="799" type="curve" smooth="yes"/>
      <point x="346" y="799"/>
      <point x="373" y="819"/>
      <point x="381" y="858" type="curve"/>
      <point x="362" y="862" type="line"/>
      <point x="353" y="829"/>
      <point x="335" y="821"/>
      <point x="315" y="821" type="curve" smooth="yes"/>
      <point x="290" y="821"/>
      <point x="268" y="834"/>
      <point x="249" y="846" type="curve" smooth="yes"/>
      <point x="229" y="859"/>
      <point x="211" y="872"/>
      <point x="185" y="872" type="curve" smooth="yes"/>
      <point x="152" y="872"/>
      <point x="126" y="849"/>
      <point x="119" y="815" type="curve"/>
      <point x="142" y="811" type="line"/>
      <point x="148" y="839"/>
      <point x="165" y="850"/>
      <point x="185" y="850" type="curve" smooth="yes"/>
      <point x="206" y="850"/>
      <point x="224" y="838"/>
      <point x="244" y="826" type="curve" smooth="yes"/>
      <point x="265" y="813"/>
      <point x="290" y="799"/>
    </contour>
  </outline>
</glyph>
<glyph name="dieresiscomb_acutecomb" format="2">
  <anchor x="250" y="525" name="_top"/>
  <anchor x="250" y="750" name="top"/>
  <outline>
    <contour>
      <point x="175" y="645" type="curve" smooth="yes"/>
      <point x="194" y="645"/>
      <point x="203" y="657"/>
      <point x="203" y="674" type="curve" smooth="yes"/>
      <point x="203" y="691"/>
      <point x="192" y="703"/>
      <point x="175" y="703" type="curve" smooth="yes"/>
      <point x="156" y="703"/>
      <point x="147" y="690"/>
      <point x="147" y="674" type="curve" smooth="yes"/>
      <point x="147" y="657"/>
      <point x="156" y="645"/>
    </contour>
    <contour>
      <point x="325" y="645" type="curve" smooth="yes"/>
      <point x="344" y="645"/>
      <point x="353" y="657"/>
      <point x="353" y="674" type="curve" smooth="yes"/>
      <point x="353" y="691"/>
      <point x="342" y="703"/>
      <point x="325" y="703" type="curve" smooth="yes"/>
      <point x="306" y="703"/>
      <point x="297" y="690"/>
      <point x="297" y="674" type="curve" smooth="yes"/>
      <point x="297" y="657"/>
      <point x="306" y="645"/>
    </contour>
    <contour>
      <point x="249" y="725" type="line"/>
      <point x="336" y="830" type="line"/>
      <point x="313" y="847" type="line"/>
      <point x="234" y="736" type="line"/>
    </contour>
  </outline>
</glyph>
<glyph name="dotaccentcomb.case" format="2">
  <anchor x="250" y="700" name="_top"/>
  <anchor x="250" y="820" name="top"/>
  <outline>
    <contour>
      <point x="250" y="789" type="curve" smooth="yes"/>
      <point x="269" y="789"/>
      <point x="278" y="801"/>
      <point x="278" y="818" type="curve" smooth="yes"/>
      <point x="278" y="835"/>
      <point x="267" y="847"/>
      <point x="250" y="847" type="curve" smooth="yes"/>
      <point x="231" y="847"/>
      <point x="222" y="834"/>
      <point x="222" y="818" type="curve" smooth="yes"/>
      <point x="222" y="801"/>
      <point x="231" y="789"/>
    </contour>
  </outline>
</glyph>
<glyph name="g.ss01" format="2">
  <advance width="702"/>
  <anchor x="381" y="-230" name="bottom"/>
  <anchor x="381" y="525" name="top"/>
  <outline>
    <contour>
      <point x="379" y="-231" type="curve" smooth="yes"/>
      <point x="522" y="-231"/>
      <point x="608" y="-164"/>
      <point x="608" y="-76" type="curve" smooth="yes"/>
      <point x="608" y="20"/>
      <point x="522" y="79"/>
      <point x="379" y="79" type="curve" smooth="yes"/>
      <point x="274" y="79" type="line" smooth="yes"/>
      <point x="231" y="79"/>
      <point x="205" y="97"/>
      <point x="205" y="130" type="curve" smooth="yes"/>
      <point x="205" y="157"/>
      <point x="230" y="180"/>
      <point x="274" y="180" type="curve" smooth="yes"/>
      <point x="371" y="180" type="line" smooth="yes"/>
      <point x="488" y="180"/>
      <point x="566" y="254"/>
      <point x="566" y="357" type="curve" smooth="yes"/>
      <point x="566" y="408"/>
      <point x="556" y="448"/>
      <point x="461" y="516" type="curve"/>
      <point x="455" y="498" type="line"/>
      <point x="612" y="498" type="line"/>
      <point x="612" y="520" type="line"/>
      <point x="409" y="520" type="line"/>
      <point x="468" y="511" type="line"/>
      <point x="420" y="528"/>
      <point x="391" y="531"/>
      <point x="371" y="531" type="curve" smooth="yes"/>
      <point x="263" y="531"/>
      <point x="176" y="453"/>
      <point x="176" y="357" type="curve" smooth="yes"/>
      <point x="176" y="289"/>
      <point x="208" y="227"/>
      <point x="308" y="187" type="curve"/>
      <point x="286" y="201" type="line"/>
      <point x="206" y="200"/>
      <point x="182" y="169"/>
      <point x="182" y="129" type="curve" smooth="yes"/>
      <point x="182" y="86"/>
      <point x="205" y="59"/>
      <point x="292" y="56" type="curve"/>
      <point x="292" y="72" type="line"/>
      <point x="192" y="41"/>
      <point x="150" y="-9"/>
      <point x="150" y="-76" type="curve" smooth="yes"/>
      <point x="150" y="-164"/>
      <point x="230" y="-231"/>
    </contour>
    <contour>
      <point x="378" y="-209" type="curve" smooth="yes"/>
      <point x="254" y="-209"/>
      <point x="173" y="-152"/>
      <point x="173" y="-76" type="curve" smooth="yes"/>
      <point x="173" y="7"/>
      <point x="254" y="57"/>
      <point x="378" y="57" type="curve" smooth="yes"/>
      <point x="505" y="57"/>
      <point x="585" y="7"/>
      <point x="585" y="-76" type="curve" smooth="yes"/>
      <point x="585" y="-152"/>
      <point x="505" y="-209"/>
    </contour>
    <contour>
      <point x="371" y="202" type="curve" smooth="yes"/>
      <point x="274" y="202"/>
      <point x="199" y="268"/>
      <point x="199" y="357" type="curve" smooth="yes"/>
      <point x="199" y="442"/>
      <point x="274" y="509"/>
      <point x="371" y="509" type="curve" smooth="yes"/>
      <point x="468" y="509"/>
      <point x="543" y="441"/>
      <point x="543" y="357" type="curve" smooth="yes"/>
      <point x="543" y="264"/>
      <point x="468" y="202"/>
    </contour>
  </outline>
</glyph>
<glyph name="hookabovecomb.case" format="2">
  <anchor x="250" y="700" name="_top"/>
  <anchor x="250" y="820" name="top"/>
  <outline>
    <contour>
      <point x="241" y="765" type="curve"/>
      <point x="263" y="770" type="line"/>
      <point x="261" y="774"/>
      <point x="259" y="778"/>
      <point x="259" y="783" type="curve" smooth="yes"/>
      <point x="259" y="794"/>
      <point x="272" y="802"/>
      <point x="287" y="811" type="curve" smooth="yes"/>
      <point x="307" y="823"/>
      <point x="331" y="836"/>
      <point x="331" y="861" type="curve" smooth="yes"/>
      <point x="331" y="892"/>
      <point x="296" y="912"/>
      <point x="244" y="912" type="curve" smooth="yes"/>
      <point x="216" y="912"/>
      <point x="192" y="907"/>
      <point x="169" y="898" type="curve"/>
      <point x="176" y="878" type="line"/>
      <point x="201" y="887"/>
      <point x="224" y="890"/>
      <point x="245" y="890" type="curve" smooth="yes"/>
      <point x="279" y="890"/>
      <point x="306" y="881"/>
      <point x="306" y="861" type="curve" smooth="yes"/>
      <point x="306" y="844"/>
      <point x="290" y="836"/>
      <point x="270" y="824" type="curve" smooth="yes"/>
      <point x="252" y="813"/>
      <point x="235" y="803"/>
      <point x="235" y="784" type="curve" smooth="yes"/>
      <point x="235" y="776"/>
      <point x="238" y="771"/>
    </contour>
  </outline>
</glyph>
<glyph name="hungarumlautcomb.case" format="2">
  <anchor x="201" y="700" name="_top"/>
  <anchor x="251" y="820" name="top"/>
  <outline>
    <contour>
      <point x="111" y="761" type="line"/>
      <point x="263" y="852" type="line"/>
      <point x="251" y="874" type="line"/>
      <point x="102" y="777" type="line"/>
    </contour>
    <contour>
      <point x="246" y="761" type="line"/>
      <point x="398" y="852" type="line"/>
      <point x="386" y="874" type="line"/>
      <point x="237" y="777" type="line"/>
    </contour>
  </outline>
</glyph>
<glyph name="macroncomb_gravecomb" format="2">
  <anchor x="250" y="525" name="_top"/>
  <anchor x="250" y="680" name="top"/>
  <outline>
    <contour>
      <point x="273" y="719" type="line"/>
      <point x="288" y="730" type="line"/>
      <point x="209" y="841" type="line"/>
      <point x="186" y="824" type="line"/>
    </contour>
    <contour>
      <point x="115" y="653" type="line"/>
      <point x="385" y="653" type="line"/>
      <point x="385" y="675" type="line"/>
      <point x="115" y="675" type="line"/>
    </contour>
  </outline>
</glyph>
<glyph name="nine.dnom" format="2">
  <advance width="333"/>
  <outline>
    <contour>
      <point x="151" y="-10" type="curve" smooth="yes"/>
      <point x="247" y="-10"/>
      <point x="285" y="80.667"/>
      <point x="285" y="218" type="curve" smooth="yes"/>
      <point x="285" y="308.667"/>
      <point x="237" y="358"/>
      <point x="165" y="358" type="curve" smooth="yes"/>
      <point x="99.667" y="358"/>
      <point x="48" y="306.667"/>
      <point x="48" y="240" type="curve" smooth="yes"/>
      <point x="48" y="174.667"/>
      <point x="99.667" y="123"/>
      <point x="165" y="123" type="curve" smooth="yes"/>
      <point x="217" y="123"/>
      <point x="257" y="153.333"/>
      <point x="273" y="208" type="curve"/>
      <point x="264" y="197" type="line"/>
      <point x="258.667" y="78.333"/>
      <point x="224.667" y="12"/>
      <point x="154" y="12" type="curve" smooth="yes"/>
      <point x="123.333" y="12"/>
      <point x="97.333" y="22.333"/>
      <point x="76" y="37" type="curve"/>
      <point x="66" y="18" type="line"/>
      <point x="94" y="-2"/>
      <point x="120.333" y="-10"/>
    </contour>
    <contour>
      <point x="166" y="144" type="curve" smooth="yes"/>
      <point x="112.667" y="144"/>
      <point x="69" y="187.667"/>
      <point x="69" y="241" type="curve" smooth="yes"/>
      <point x="69" y="294.333"/>
      <point x="112.667" y="337"/>
      <point x="166" y="337" type="curve" smooth="yes"/>
      <point x="219.333" y="337"/>
      <point x="261" y="294.333"/>
      <point x="261" y="241" type="curve" smooth="yes"/>
      <point x="261" y="187.667"/>
      <point x="219.333" y="144"/>
    </contour>
  </outline>
</glyph>
<glyph name="six.dnom" format="2">
  <advance width="333"/>
  <outline>
    <contour>
      <point x="162" y="-10" type="curve" smooth="yes"/>
      <point x="227" y="-10"/>
      <point x="279" y="41"/>
      <point x="279" y="108" type="curve" smooth="yes"/>
      <point x="279" y="173"/>
      <point x="227" y="225"/>
      <point x="162" y="225" type="curve" smooth="yes"/>
      <point x="110" y="225"/>
      <point x="70" y="195"/>
      <point x="54" y="140" type="curve"/>
      <point x="63" y="151" type="line"/>
      <point x="68" y="270"/>
      <point x="101" y="336"/>
      <point x="173" y="336" type="curve" smooth="yes"/>
      <point x="204" y="336"/>
      <point x="230" y="326"/>
      <point x="251" y="311" type="curve"/>
      <point x="261" y="330" type="line"/>
      <point x="233" y="350"/>
      <point x="207" y="358"/>
      <point x="176" y="358" type="curve" smooth="yes"/>
      <point x="80" y="358"/>
      <point x="42" y="267"/>
      <point x="42" y="130" type="curve" smooth="yes"/>
      <point x="42" y="39"/>
      <point x="90" y="-10"/>
    </contour>
    <contour>
      <point x="161" y="11" type="curve" smooth="yes"/>
      <point x="108" y="11"/>
      <point x="66" y="54"/>
      <point x="66" y="107" type="curve" smooth="yes"/>
      <point x="66" y="160"/>
      <point x="108" y="204"/>
      <point x="161" y="204" type="curve" smooth="yes"/>
      <point x="214" y="204"/>
      <point x="258" y="160"/>
      <point x="258" y="107" type="curve" smooth="yes"/>
      <point x="258" y="54"/>
      <point x="214" y="11"/>
    </contour>
  </outline>
</glyph>
<glyph name="three.dnom" format="2">
  <advance width="342"/>
  <outline>
    <contour>
      <point x="174" y="-10" type="curve" smooth="yes"/>
      <point x="243.333" y="-10"/>
      <point x="297" y="40"/>
      <point x="297" y="108" type="curve" smooth="yes"/>
      <point x="297" y="170.667"/>
      <point x="245.428" y="215"/>
      <point x="183" y="215" type="curve" smooth="yes"/>
      <point x="160.915" y="215"/>
      <point x="143.537" y="211.359"/>
      <point x="107" y="187" type="curve"/>
      <point x="124" y="187" type="line"/>
      <point x="270" y="326" type="line"/>
      <point x="266" y="350" type="line"/>
      <point x="80" y="350" type="line"/>
      <point x="80" y="329" type="line"/>
      <point x="254" y="329" type="line"/>
      <point x="249" y="334" type="line"/>
      <point x="92" y="184" type="line"/>
      <point x="97" y="169" type="line"/>
      <point x="132.76" y="189.212"/>
      <point x="148.392" y="194"/>
      <point x="181" y="194" type="curve" smooth="yes"/>
      <point x="231.667" y="194"/>
      <point x="275" y="159"/>
      <point x="275" y="107" type="curve" smooth="yes"/>
      <point x="275" y="48.333"/>
      <point x="232" y="12"/>
      <point x="172" y="12" type="curve" smooth="yes"/>
      <point x="144" y="12"/>
      <point x="119.333" y="16.667"/>
      <point x="78" y="42" type="curve"/>
      <point x="66" y="24" type="line"/>
      <point x="94" y="4"/>
      <point x="136.667" y="-10"/>
    </contour>
  </outline>
</glyph>
<glyph name="zero.dnom" format="2">
  <advance width="364"/>
  <outline>
    <contour>
      <point x="183" y="-10" type="curve" smooth="yes"/>
      <point x="271" y="-10"/>
      <point x="334" y="68.667"/>
      <point x="334" y="174" type="curve" smooth="yes"/>
      <point x="334" y="282"/>
      <point x="272.333" y="359"/>
      <point x="183" y="359" type="curve" smooth="yes"/>
      <point x="92.333" y="359"/>
      <point x="30" y="282"/>
      <point x="30" y="174" type="curve" smooth="yes"/>
      <point x="30" y="68.667"/>
      <point x="93.667" y="-10"/>
    </contour>
    <contour>
      <point x="183" y="12" type="curve" smooth="yes"/>
      <point x="105.667" y="12"/>
      <point x="53" y="76.667"/>
      <point x="53" y="174" type="curve" smooth="yes"/>
      <point x="53" y="272.667"/>
      <point x="103.724" y="337"/>
      <point x="183" y="337" type="curve" smooth="yes"/>
      <point x="262.287" y="337"/>
      <point x="311" y="271.333"/>
      <point x="311" y="174" type="curve" smooth="yes"/>
      <point x="311" y="79.333"/>
      <point x="259" y="12"/>
    </contour>
  </outline>
</glyph>
